<svg id="Layer_1" data-name="Layer 1" xmlns="http://www.w3.org/2000/svg" viewBox="0 0 470 46.83"><defs><style>.cls-1{fill:#231f20;}</style></defs><title>access-manager-plus-black</title><path class="cls-1" d="M25.21,35.37H31.6L19.6,1.29H13.12l-12,34.08H7.5l2.88-8.74H22.33l2.88,8.74ZM16.43,7.19s.72,3.36,1.34,5.28l3,9.12H11.87l3-9.12c.67-1.92,1.44-5.28,1.44-5.28Z"/><path class="cls-1" d="M33.23,23.13c0,7.1,5.18,12.81,13.29,12.81A13.94,13.94,0,0,0,56.6,32l-2.35-4.32a11.26,11.26,0,0,1-7.2,3.12,7.45,7.45,0,0,1-7.63-7.68,7.27,7.27,0,0,1,7.44-7.58,9.58,9.58,0,0,1,6.38,2.64L55.93,14s-3-3.65-9.41-3.65c-8.11,0-13.29,5.86-13.29,12.82Z"/><path class="cls-1" d="M59.39,23.13c0,7.1,5.18,12.81,13.29,12.81a13.94,13.94,0,0,0,10.08-4l-2.35-4.32a11.26,11.26,0,0,1-7.2,3.12,7.45,7.45,0,0,1-7.63-7.68A7.27,7.27,0,0,1,73,15.5a9.58,9.58,0,0,1,6.38,2.64L82.09,14s-3-3.65-9.41-3.65c-8.11,0-13.29,5.86-13.29,12.82Z"/><path class="cls-1" d="M85.6,23.13c0,7,5,12.81,13.15,12.81a15.32,15.32,0,0,0,9.84-3.5l-2.35-4.37a12.09,12.09,0,0,1-7.06,2.69c-3.65,0-7-2.21-7.34-6.48h16.89s.15-1.63.15-2.35c0-6.48-3.8-11.62-10.85-11.62-7.3,0-12.43,5.28-12.43,12.82Zm6.43-3A5.69,5.69,0,0,1,97.88,15c2.69,0,4.76,1.77,4.85,5.08Z"/><path class="cls-1" d="M111.85,32.34a13.71,13.71,0,0,0,9.51,3.6c5.8,0,9.36-3.26,9.36-7.34,0-7.87-11.91-7.44-11.91-10.9,0-1.53,1.54-2.2,3.12-2.2a9.28,9.28,0,0,1,6,2.11l2.26-4.51s-2.69-2.79-8.21-2.79c-5.28,0-9.36,2.64-9.36,7.2,0,7.87,11.9,7.39,11.9,11,0,1.44-1.48,2.21-3.21,2.21a10.21,10.21,0,0,1-6.67-2.69l-2.79,4.27Z"/><path class="cls-1" d="M133.55,32.34a13.7,13.7,0,0,0,9.5,3.6c5.81,0,9.36-3.26,9.36-7.34,0-7.87-11.9-7.44-11.9-10.9,0-1.53,1.53-2.2,3.12-2.2a9.31,9.31,0,0,1,6,2.11l2.25-4.51s-2.68-2.79-8.2-2.79c-5.28,0-9.36,2.64-9.36,7.2,0,7.87,11.9,7.39,11.9,11,0,1.44-1.49,2.21-3.22,2.21a10.24,10.24,0,0,1-6.67-2.69l-2.78,4.27Z"/><path class="cls-1" d="M168.88,35.37h6.19l1.44-19.06c.14-2.25.05-5.33.05-5.33h.09s1.06,3.36,1.87,5.33L184,29.51h5.42l5.52-13.2c.82-2,1.82-5.28,1.82-5.28h.1s-.1,3,0,5.28l1.44,19.06h6.14L201.76,1.29h-6.63l-6.67,16.85c-.77,2-1.68,5-1.68,5h-.1s-1-3-1.72-5L178.28,1.29h-6.62l-2.78,34.08Z"/><path class="cls-1" d="M209.05,28.31c0,4.9,3.94,7.63,8.31,7.63a7.91,7.91,0,0,0,7.43-4.32h.1a15,15,0,0,0-.1,1.73v2h5.62V20.06c0-6.2-3.74-9.75-10.17-9.75a16.48,16.48,0,0,0-9.6,3l2.3,4.36a13.08,13.08,0,0,1,6.72-2.35c2.69,0,4.7,1.11,4.7,4.32V20h-.81c-4,0-14.5.53-14.5,8.3ZM215.2,28c0-3.4,5-3.84,8.16-3.84h1v.58c0,3-2.3,6.43-5.52,6.43-2.49,0-3.69-1.53-3.69-3.17Z"/><path class="cls-1" d="M236.75,35.37h6.09V24.14a10.23,10.23,0,0,1,.44-3.27,6.75,6.75,0,0,1,6.57-5c3.12,0,3.89,2,3.89,5v14.5h6.05V19.62c0-6.48-3.07-9.31-8.5-9.31a9.52,9.52,0,0,0-8.69,5.09h-.09a16.21,16.21,0,0,0,.09-1.68V10.89h-5.85V35.37Z"/><path class="cls-1" d="M264.11,28.31c0,4.9,3.93,7.63,8.3,7.63a7.92,7.92,0,0,0,7.44-4.32h.1a15,15,0,0,0-.1,1.73v2h5.62V20.06c0-6.2-3.75-9.75-10.18-9.75a16.48,16.48,0,0,0-9.6,3L268,17.7a13.08,13.08,0,0,1,6.72-2.35c2.68,0,4.7,1.11,4.7,4.32V20h-.82c-4,0-14.49.53-14.49,8.3Zm6.14-.29c0-3.4,5-3.84,8.16-3.84h1.06v.58c0,3-2.31,6.43-5.52,6.43-2.5,0-3.7-1.53-3.7-3.17Z"/><path class="cls-1" d="M294.3,38.68l-1.82,4.66a19.58,19.58,0,0,0,8.68,2.11c6.39,0,12.92-3.17,12.92-11.57v-23h-5.72v1.87a4.38,4.38,0,0,0,.05.67h-.14s-1.92-3.12-7.25-3.12c-7.06,0-10.85,5.47-10.85,12.19s4,12.39,11,12.39c3.27,0,5.38-1.15,6.82-3.31h.09a12.53,12.53,0,0,0-.09,1.29v1.44c0,4.37-3.17,5.95-6.91,5.95a16.48,16.48,0,0,1-6.77-1.58Zm8.16-8.93c-3.94,0-6.14-3.17-6.14-7.44s2.06-6.81,5.76-6.81c3.31,0,6,1.48,6,7.05s-2.73,7.2-5.66,7.2Z"/><path class="cls-1" d="M319.07,23.13c0,7,5,12.81,13.15,12.81a15.32,15.32,0,0,0,9.84-3.5l-2.35-4.37a12.09,12.09,0,0,1-7.06,2.69c-3.65,0-7-2.21-7.34-6.48H342.2s.15-1.63.15-2.35c0-6.48-3.8-11.62-10.85-11.62-7.3,0-12.43,5.28-12.43,12.82Zm6.43-3A5.69,5.69,0,0,1,331.36,15c2.68,0,4.75,1.77,4.84,5.08Z"/><path class="cls-1" d="M347.39,35.37h6.09v-9.7a13.22,13.22,0,0,1,.53-4,6.93,6.93,0,0,1,6.67-5.14,10,10,0,0,1,1.44.1v-6a6.72,6.72,0,0,0-1.1-.1c-3.75,0-6.67,2.79-7.78,6.29h-.09s.09-.82.09-1.73V10.89h-5.85V35.37Z"/><path class="cls-1" d="M379.16,35.37h4.75V22.84h7.64c6.19,0,10.65-4.32,10.65-10.75S397.74,1.48,391.55,1.48H379.16V35.37Zm4.75-16.66V5.61h6.92c4,0,6.52,2.4,6.52,6.48s-2.49,6.62-6.57,6.62Z"/><path class="cls-1" d="M407.05,28.74c0,6.1,3.89,6.82,6.53,6.82a12.53,12.53,0,0,0,1.53-.1V31.34s-.38,0-.81,0c-1.44,0-2.59-.52-2.59-3.45V1.48h-4.66V28.74Z"/><path class="cls-1" d="M419.72,26.63c0,6.43,2.83,9.31,8.31,9.31A9.77,9.77,0,0,0,437,30.38h.1a15.06,15.06,0,0,0-.1,1.77v3.22h4.52V11.08h-4.66V22.46c0,4.8-2.93,9.16-7.87,9.16-3.89,0-4.56-2.68-4.56-6V11.08h-4.66V26.63Z"/><path class="cls-1" d="M446.79,32.39A13.08,13.08,0,0,0,456,35.94c5.33,0,8.78-3,8.78-7,0-8-12.48-7-12.48-11.38,0-2.11,2-3,4-3a8.89,8.89,0,0,1,6,2.16l1.87-3.51s-2.5-2.69-7.82-2.69c-4.85,0-8.79,2.5-8.79,6.92,0,7.92,12.48,7,12.48,11.47,0,2-2,3-4,3a10.44,10.44,0,0,1-7-2.83l-2.26,3.31Z"/></svg>