<?xml version="1.0" encoding="utf-8"?>
<!-- Generator: Adobe Illustrator 24.2.1, SVG Export Plug-In . SVG Version: 6.00 Build 0)  -->
<svg version="1.1" id="Layer_1" xmlns="http://www.w3.org/2000/svg" xmlns:xlink="http://www.w3.org/1999/xlink" x="0px" y="0px"
	 viewBox="0 0 615 252" style="enable-background:new 0 0 615 252;" xml:space="preserve">
<style type="text/css">
	.st0{fill:url(#SVGID_1_);}
	.st1{opacity:0.12;}
	.st2{fill:url(#SVGID_2_);}
	.st3{fill:#B0CEEA;}
	.st4{fill:url(#SVGID_3_);}
	.st5{opacity:0.18;fill:#0E0092;enable-background:new    ;}
	.st6{fill:url(#SVGID_4_);}
	.st7{fill:#D3E5FF;}
	.st8{fill:#FFFFFF;}
	.st9{fill:url(#SVGID_5_);}
	.st10{fill:#FF005C;}
	.st11{fill:#FFC136;}
	.st12{fill:#00EAD9;}
	.st13{opacity:6.000000e-02;}
	.st14{fill:#E5ECFF;}
	.st15{fill:#5699FF;}
	.st16{fill:#D3ECFF;}
	.st17{fill:#E4E5FB;}
	.st18{fill:#6490FF;}
	.st19{fill:none;stroke:#000000;stroke-miterlimit:10;}
	.st20{fill:none;stroke:#B5B5B5;stroke-miterlimit:10;}
	.st21{fill:#03B079;}
	.st22{fill:url(#SVGID_6_);}
	.st23{fill:url(#SVGID_7_);}
	.st24{fill:url(#SVGID_8_);}
	.st25{fill:url(#SVGID_9_);}
	.st26{fill:none;}
	.st27{fill:url(#SVGID_10_);}
	.st28{fill:url(#SVGID_11_);}
	.st29{fill:#E8F4FC;}
	.st30{fill:#A4D6FF;}
	.st31{fill:url(#SVGID_12_);}
	.st32{opacity:0.1;fill:#292929;enable-background:new    ;}
	.st33{fill:url(#SVGID_13_);}
	.st34{fill:url(#SVGID_14_);}
	.st35{fill:url(#SVGID_15_);}
	.st36{font-family:'OpenSans-Bold';}
	.st37{font-size:4.155px;}
	.st38{fill:url(#SVGID_16_);}
	.st39{fill:#FFEEBF;stroke:#F6AE39;stroke-width:0.5;stroke-miterlimit:10;}
	.st40{fill:#F6AE39;}
	.st41{fill:url(#SVGID_17_);}
	.st42{opacity:0.25;enable-background:new    ;}
	.st43{fill:#FFB54A;}
	.st44{fill:#878787;}
	.st45{opacity:0.17;fill:url(#SVGID_18_);enable-background:new    ;}
	.st46{fill:#F2CAAF;}
	.st47{fill:#075EDB;}
	.st48{fill:#153C66;}
	.st49{fill:#341818;}
	.st50{fill:#164D72;}
	.st51{fill:#F4AB3A;}
	.st52{fill:#268FEF;}
	.st53{fill:#DFBBA1;}
	.st54{fill:#5EAEF7;}
	.st55{fill:url(#SVGID_19_);}
	.st56{fill:url(#SVGID_20_);}
	.st57{fill:url(#SVGID_21_);}
	.st58{fill:url(#SVGID_22_);}
	.st59{fill:url(#SVGID_23_);}
	.st60{fill:url(#SVGID_24_);}
	.st61{fill:#02BA80;}
	.st62{fill:#E86464;}
	.st63{fill:none;stroke:#D3E5FF;stroke-miterlimit:10;}
	.st64{fill:#777777;}
	.st65{fill:#E0E0E0;}
	.st66{fill:#464293;}
	.st67{opacity:0.2;enable-background:new    ;}
	.st68{fill:#F5841F;}
	.st69{opacity:0.6;fill:#98DAF2;enable-background:new    ;}
	.st70{opacity:0.1;enable-background:new    ;}
	.st71{opacity:0.3;}
	.st72{fill:#FBC4A6;}
	.st73{fill:#041738;}
	.st74{fill:#EDAB5D;}
	.st75{fill:#11025F;}
	.st76{fill:#525252;}
	.st77{fill:#636363;}
	.st78{fill:#497EFF;}
	.st79{fill:#FFD1A2;}
	.st80{fill:#FFD6BD;}
	.st81{opacity:0.16;enable-background:new    ;}
	.st82{fill:#00204C;}
	.st83{fill:#B3C9FF;}
	.st84{fill:url(#SVGID_25_);}
	.st85{fill:url(#SVGID_26_);}
	.st86{opacity:0.1;}
	.st87{fill:url(#SVGID_27_);}
	.st88{fill:#231313;}
	.st89{fill:#0F1D5B;}
	.st90{fill:#868DAD;}
	.st91{fill:#B0B5DC;}
	.st92{fill:#070053;}
	.st93{fill:#959CD1;}
	.st94{fill:#7B83C5;}
	.st95{fill:#D48E29;}
	.st96{opacity:0.68;fill:url(#SVGID_28_);}
</style>
<linearGradient id="SVGID_1_" gradientUnits="userSpaceOnUse" x1="463.9698" y1="105.15" x2="463.9698" y2="50.6849" gradientTransform="matrix(1 0 0 -1 0 252)">
	<stop  offset="0" style="stop-color:#D0E0F8;stop-opacity:0.5"/>
	<stop  offset="0.5671" style="stop-color:#C0D7F1;stop-opacity:0.7835"/>
	<stop  offset="1" style="stop-color:#B0CEEA"/>
</linearGradient>
<path class="st0" d="M396,202.2c10.1,0.7,20.3,0.4,30.4,0.1c13.1-0.3,26.2-0.8,39.3-1.4c11-0.5,22-1.2,33-2.2
	c9.2-0.9,18.3-1.9,27.2-4.6c2.8-0.9,5.9-2.3,7.2-5.1c0.8-1.6,0.9-3.6,0.1-5.3c-1.6-3.4-6.4-4.4-9.8-5.1c-10.5-2-21.3-1.5-31.9-1.8
	c-7.2-0.2-14.4-0.8-21.6-1.3c-11.1-0.7-22.2-1.4-33.3-2.8c-3.7-0.5-7.4-0.9-11-2c-0.3-0.1-0.5-0.2-0.8-0.3c-0.5-0.2,0.2,0.2-0.3-0.1
	c-0.3-0.2-0.8-0.4-1-0.7c-0.6-0.9,0.7-1.5,1.4-2c3.6-2.5,7.6-4.5,11.7-6c8.3-3.1,17-4.6,25.7-6.3c9.6-1.9,19.3-3.2,29-4.3
	c4.7-0.6,9.4-1.1,14.1-1.8c1-0.1,1.5-1.4,1.3-2.3c-0.3-1.1-1.3-1.4-2.3-1.3c-9.7,1.3-19.5,2.3-29.2,3.7c-9.2,1.3-18.4,3-27.5,5.1
	c-8.5,2-16.9,4.8-24.2,9.7c-1.5,1-3.2,2.2-3.8,4c-0.6,2,0.6,3.8,2.2,4.9c1.1,0.7,2.4,1.2,3.6,1.5c3.9,1,7.9,1.5,11.9,2
	c5.5,0.7,10.9,1.2,16.4,1.6c10,0.8,20.1,1.4,30.2,2c7.8,0.5,15.6,0.4,23.5,0.7c5.4,0.2,10.9,0.5,16.2,1.7c1.8,0.4,3.6,0.9,5.2,1.9
	c0.4,0.3,0.7,0.5,0.9,0.9s-0.1-0.4,0,0c0,0.1,0.1,0.2,0.1,0.3s0.1,0.5,0,0.1c0,0.2,0,0.5,0,0.7c-0.1,2.1-2.9,3.4-5,4
	c-1.5,0.5-3,0.9-4.5,1.3c-4,1-8.1,1.7-12.2,2.2c-11.5,1.4-23,2.3-34.5,2.9c-12.6,0.7-25.3,1.2-38,1.6c-11.5,0.3-23,0.6-34.4,0.3
	c-1.8,0-3.6-0.1-5.4-0.2C393.6,198.4,393.6,202,396,202.2L396,202.2z"/>
<g>
	<g>
		<g class="st1">
			<path d="M409.7,209.2c0,3.1-19.4,5.8-43.4,5.8c-23.9,0-43.4-2.6-43.4-5.8v-5.1c0-3.1,19.4-5.8,43.4-5.8c23.9,0,43.4,2.6,43.4,5.8
				V209.2z"/>
		</g>
		<g>
			
				<linearGradient id="SVGID_2_" gradientUnits="userSpaceOnUse" x1="321.2392" y1="48.4905" x2="408.0125" y2="48.4905" gradientTransform="matrix(1 0 0 -1 0 252)">
				<stop  offset="0" style="stop-color:#E3EBFF"/>
				<stop  offset="0.6322" style="stop-color:#FFFFFF"/>
				<stop  offset="1" style="stop-color:#E1EAFF"/>
			</linearGradient>
			<path class="st2" d="M408.1,206.1c0,3.1-19.4,5.8-43.4,5.8s-43.4-2.6-43.4-5.8v-5.1c0-3.1,19.4-5.8,43.4-5.8s43.4,2.6,43.4,5.8
				V206.1z"/>
		</g>
	</g>
	<ellipse class="st3" cx="364.7" cy="200.9" rx="43.4" ry="5.8"/>
</g>
<g>
	<g>
		
			<linearGradient id="SVGID_3_" gradientUnits="userSpaceOnUse" x1="356.9857" y1="57.1592" x2="376.6176" y2="57.1592" gradientTransform="matrix(1 -8.329241e-03 -8.329241e-03 -1 -7.553667e-03 253.5385)">
			<stop  offset="0" style="stop-color:#1A1A1A"/>
			<stop  offset="1" style="stop-color:#292929"/>
		</linearGradient>
		<polygon class="st4" points="376.2,198.9 356.5,199.1 356.5,187.7 376.1,187.6 		"/>
		
			<rect x="356.5" y="187.6" transform="matrix(1 -8.328952e-03 8.328952e-03 1 -1.5677 3.0575)" class="st5" width="19.6" height="4.4"/>
		
			<linearGradient id="SVGID_4_" gradientUnits="userSpaceOnUse" x1="302.7969" y1="105.2227" x2="427.9812" y2="105.2227" gradientTransform="matrix(1 -8.329241e-03 -8.329241e-03 -1 -7.553667e-03 253.5385)">
			<stop  offset="0" style="stop-color:#1A1A1A"/>
			<stop  offset="1" style="stop-color:#292929"/>
		</linearGradient>
		<path class="st6" d="M422.3,189.4l-114.5,0.9c-3,0-5.4-2.3-5.4-5.3l-0.8-78.5c0-3,2.3-5.4,5.3-5.4l114.5-0.9c3,0,5.4,2.3,5.4,5.3
			l0.6,78.5C427.5,186.9,425.2,189.4,422.3,189.4z"/>
		<path class="st7" d="M419.1,185.4l-108.4,0.9c-2.8,0-5.1-2.3-5.1-5.1l-0.6-70.8c0-2.8,2.3-5.1,5.1-5.1l108.4-0.9
			c2.8,0,5.1,2.3,5.1,5.1l0.6,70.8C424.3,183.1,421.9,185.4,419.1,185.4z"/>
		<path class="st8" d="M420.2,185.5l-110.7,0.9c-2.2,0-3.9-1.7-3.9-3.7l-0.6-71.8l118.7-0.9l0.6,71.5
			C424.3,183.7,422.4,185.5,420.2,185.5z"/>
		
			<linearGradient id="SVGID_5_" gradientUnits="userSpaceOnUse" x1="337.4615" y1="49.7725" x2="396.2485" y2="49.7725" gradientTransform="matrix(1 -8.329241e-03 -8.329241e-03 -1 -7.553667e-03 253.5385)">
			<stop  offset="0" style="stop-color:#1A1A1A"/>
			<stop  offset="1" style="stop-color:#292929"/>
		</linearGradient>
		<path class="st9" d="M394.4,202.2l-56,0.5c-0.8,0-1.4-0.6-1.4-1.4v-0.6c0-0.8,0.6-1.4,1.4-1.4l56-0.5c0.8,0,1.4,0.6,1.4,1.4v0.6
			C395.7,201.6,395.2,202.2,394.4,202.2z"/>
	</g>
	<path class="st10" d="M310.9,108c0,0.5-0.3,0.9-0.9,0.9c-0.5,0-0.9-0.3-0.9-0.9s0.3-0.9,0.9-0.9C310.6,107,310.9,107.5,310.9,108z"
		/>
	<path class="st11" d="M312.9,107c-0.5,0-0.9,0.5-0.9,0.9s0.5,0.9,0.9,0.9c0.5,0,0.9-0.5,0.9-0.9S313.4,107,312.9,107z"/>
	<path class="st12" d="M315.9,107c-0.5,0-0.9,0.5-0.9,0.9c0,0.5,0.5,0.9,0.9,0.9s0.9-0.5,0.9-0.9C316.7,107.5,316.4,107,315.9,107z"
		/>
	<g>
		<g>
			<g>
				<g class="st13">
					<path d="M356.8,189.1l-27.7,0.2c-8.1,0-14.8-6.5-14.8-14.6l-0.2-10.4c0-8.1,6.5-14.8,14.6-14.8l27.7-0.2
						c8.1,0,14.8,6.5,14.8,14.6l0.2,10.4C371.4,182.4,364.9,189,356.8,189.1z"/>
				</g>
				<g>
					<path class="st14" d="M364.6,181.3l-27.7,0.2c-8.1,0-14.8-6.5-14.8-14.6l-0.2-10.4c0-8.1,6.5-14.8,14.6-14.8l27.7-0.2
						c8.1,0,14.8,6.5,14.8,14.6l0.2,10.4C379.2,174.7,372.7,181.2,364.6,181.3z"/>
				</g>
			</g>
			<path class="st8" d="M370.8,180.6l-42.8,0.3c-3.9,0-7.2-3.1-7.2-7.2l-0.2-25.5c0-3.9,3.1-7.2,7.2-7.2l42.8-0.3
				c3.9,0,7.2,3.1,7.2,7.2l0.2,25.5C377.9,177.3,374.8,180.6,370.8,180.6z"/>
			<path class="st15" d="M377.8,149.6l-57.1,0.5v-1.7c0-4,3.1-7.3,7.2-7.3l42.6-0.3c4,0,7.3,3.1,7.3,7.2V149.6z"/>
			<g>
				<circle class="st10" cx="326.2" cy="145.9" r="0.9"/>
				<path class="st11" d="M331.1,145.9c0,0.5-0.5,0.9-0.9,0.9c-0.5,0-0.9-0.5-0.9-0.9s0.5-0.9,0.9-0.9
					C330.7,145,331.1,145.4,331.1,145.9z"/>
				<path class="st12" d="M335.2,145.9c0,0.5-0.5,0.9-0.9,0.9s-0.9-0.5-0.9-0.9s0.5-0.9,0.9-0.9C334.9,145,335.2,145.4,335.2,145.9z
					"/>
			</g>
			<g>
				<path class="st16" d="M325.7,174.4l47.3-0.5c0.3,0,0.6,0.3,0.6,0.6v0.3c0,0.3-0.3,0.6-0.6,0.6l-47.3,0.5c-0.3,0-0.6-0.3-0.6-0.6
					V175C325.1,174.7,325.4,174.4,325.7,174.4z"/>
				<path class="st16" d="M325.7,169.7l47.3-0.5c0.3,0,0.6,0.3,0.6,0.6v0.3c0,0.3-0.3,0.6-0.6,0.6l-47.3,0.5c-0.3,0-0.6-0.3-0.6-0.6
					v-0.3C325.1,170,325.4,169.7,325.7,169.7z"/>
				<path class="st16" d="M325.7,165.2l47.3-0.5c0.3,0,0.6,0.3,0.6,0.6v0.3c0,0.3-0.3,0.6-0.6,0.6l-47.3,0.5c-0.3,0-0.6-0.3-0.6-0.6
					v-0.3C325.1,165.5,325.4,165.2,325.7,165.2z"/>
				<path class="st16" d="M340.6,154.4l29.5-0.3c1.9,0,3.4,1.4,3.4,3.3v1.6c0,1.9-1.4,3.4-3.3,3.4l-29.5,0.3c-1.9,0-3.4-1.4-3.4-3.3
					v-1.6C337.4,156,338.8,154.4,340.6,154.4z"/>
			</g>
		</g>
		<g>
			<g>
				<g class="st13">
					<path d="M385.9,162.7l-27.7,0.2c-8.1,0-14.8-6.5-14.8-14.6l-0.2-10.4c0-8.1,6.5-14.8,14.6-14.8l27.7-0.2
						c8.1,0,14.8,6.5,14.8,14.6l0.2,10.4C400.6,156,394.1,162.7,385.9,162.7z"/>
				</g>
				<g>
					<path class="st7" d="M393.6,154.9l-27.7,0.2c-8.1,0-14.8-6.5-14.8-14.6L351,130c0-8.1,6.5-14.8,14.6-14.8l27.7-0.2
						c8.1,0,14.8,6.5,14.8,14.6l0.2,10.4C408.4,148.2,401.9,154.9,393.6,154.9z"/>
				</g>
			</g>
			<path class="st8" d="M400.3,154.3l-42.6,0.3c-4,0-7.2-3.1-7.3-7.2l-0.2-25.3c0-4,3.1-7.2,7.2-7.3l42.6-0.3c4,0,7.2,3.1,7.3,7.2
				l0.2,25.3C407.5,151,404.4,154.3,400.3,154.3z"/>
			<path class="st15" d="M407.3,123.3l-57.1,0.5v-1.7c0-4,3.1-7.3,7.2-7.3l42.6-0.3c4,0,7.3,3.1,7.3,7.2V123.3z"/>
			<g>
				<path class="st10" d="M356.6,119.8c0,0.5-0.5,0.9-0.9,0.9c-0.5,0-0.9-0.5-0.9-0.9c0-0.5,0.5-0.9,0.9-0.9
					S356.6,119.1,356.6,119.8z"/>
				<path class="st11" d="M360.7,119.6c0,0.5-0.5,0.9-0.9,0.9c-0.5,0-0.9-0.5-0.9-0.9c0-0.5,0.5-0.9,0.9-0.9
					C360.4,118.7,360.7,119.1,360.7,119.6z"/>
				<path class="st12" d="M364.9,119.6c0,0.5-0.5,0.9-0.9,0.9c-0.5,0-0.9-0.5-0.9-0.9c0-0.5,0.5-0.9,0.9-0.9
					C364.4,118.7,364.9,119.1,364.9,119.6z"/>
			</g>
			<g>
				<path class="st17" d="M355.4,148.1l47.3-0.5c0.3,0,0.6,0.3,0.6,0.6v0.3c0,0.3-0.3,0.6-0.6,0.6l-47.3,0.5c-0.3,0-0.6-0.3-0.6-0.6
					v-0.3C354.6,148.4,354.9,148.1,355.4,148.1z"/>
				<path class="st17" d="M355.4,143.4l47.3-0.5c0.3,0,0.6,0.3,0.6,0.6v0.3c0,0.3-0.3,0.6-0.6,0.6l-47.3,0.5c-0.3,0-0.6-0.3-0.6-0.6
					V144C354.6,143.7,354.9,143.4,355.4,143.4z"/>
				<path class="st17" d="M355.2,138.9l47.3-0.5c0.3,0,0.6,0.3,0.6,0.6v0.3c0,0.3-0.3,0.6-0.6,0.6l-47.3,0.6c-0.3,0-0.6-0.3-0.6-0.6
					v-0.3C354.6,139.2,354.9,138.9,355.2,138.9z"/>
				<circle class="st18" cx="398.8" cy="132.2" r="4.4"/>
				<path class="st18" d="M391.2,132.4c0,2.5-1.9,4.4-4.4,4.4s-4.4-1.9-4.4-4.4s1.9-4.4,4.4-4.4C389.1,128,391.2,129.9,391.2,132.4z
					"/>
				<circle class="st11" cx="374.7" cy="132.5" r="4.4"/>
			</g>
		</g>
	</g>
	<g>
		<g class="st13">
			<circle cx="416.2" cy="184.8" r="12.9"/>
			<circle class="st19" cx="416.2" cy="184.8" r="12.9"/>
		</g>
		<g>
			<circle class="st8" cx="419.3" cy="181.7" r="12.9"/>
			<circle class="st20" cx="419.3" cy="181.7" r="12.9"/>
		</g>
	</g>
	<g>
		<path class="st21" d="M423,184.9c-0.2,0-0.5-0.2-0.6-0.3l-4.2-4c-0.2-0.2-0.3-0.5-0.3-0.6c0-0.3,0.2-0.5,0.3-0.6l4-4.2
			c0.3-0.3,0.9-0.3,1.2,0c0.3,0.3,0.3,0.9,0,1.2l-3.4,3.6l3.6,3.4c0.3,0.3,0.3,0.9,0,1.2C423.5,184.9,423.2,184.9,423,184.9z"/>
		<path class="st21" d="M414.3,189.6c-0.2,0-0.5-0.2-0.6-0.3c-0.3-0.3-0.3-0.9,0-1.2l3.4-3.6l-3.6-3.4c-0.3-0.3-0.3-0.9,0-1.2
			c0.3-0.3,0.9-0.3,1.2,0l4.2,4c0.2,0.2,0.3,0.5,0.3,0.6c0,0.3-0.2,0.5-0.3,0.6l-4,4.2C414.8,189.6,414.6,189.6,414.3,189.6z"/>
	</g>
</g>
<g>
	<g>
		<g class="st1">
			<path d="M118.9,145.4c0,2-12.5,3.7-27.9,3.7s-27.9-1.7-27.9-3.7v-3.3c0-2,12.5-3.7,27.9-3.7s27.9,1.7,27.9,3.7V145.4z"/>
		</g>
		<g>
			
				<linearGradient id="SVGID_6_" gradientUnits="userSpaceOnUse" x1="62.1" y1="110.25" x2="117.9" y2="110.25" gradientTransform="matrix(1 0 0 -1 0 252)">
				<stop  offset="0" style="stop-color:#E3EBFF"/>
				<stop  offset="0.6322" style="stop-color:#FFFFFF"/>
				<stop  offset="1" style="stop-color:#E1EAFF"/>
			</linearGradient>
			<path class="st22" d="M117.9,143.4c0,2-12.5,3.7-27.9,3.7s-27.9-1.7-27.9-3.7v-3.3c0-2,12.5-3.7,27.9-3.7s27.9,1.7,27.9,3.7
				V143.4z"/>
		</g>
	</g>
	<ellipse class="st3" cx="90" cy="140.1" rx="27.9" ry="3.7"/>
</g>
<g>
	<g>
		
			<linearGradient id="SVGID_7_" gradientUnits="userSpaceOnUse" x1="84.5159" y1="116.75" x2="97.1403" y2="116.75" gradientTransform="matrix(1 0 0 -1 0 252)">
			<stop  offset="0" style="stop-color:#1A1A1A"/>
			<stop  offset="1" style="stop-color:#292929"/>
		</linearGradient>
		<rect x="84.5" y="131.6" class="st23" width="12.6" height="7.3"/>
		<rect x="84.5" y="131.6" class="st5" width="12.6" height="2.8"/>
		
			<linearGradient id="SVGID_8_" gradientUnits="userSpaceOnUse" x1="49.7" y1="147.7" x2="130.2618" y2="147.7" gradientTransform="matrix(1 0 0 -1 0 252)">
			<stop  offset="0" style="stop-color:#1A1A1A"/>
			<stop  offset="1" style="stop-color:#292929"/>
		</linearGradient>
		<path class="st24" d="M126.8,133H53.2c-1.9,0-3.5-1.5-3.5-3.5V79.1c0-1.9,1.5-3.5,3.5-3.5h73.7c1.9,0,3.5,1.5,3.5,3.5v50.5
			C130.3,131.5,128.7,133,126.8,133z"/>
		<path class="st7" d="M124.8,130.4H55.2c-1.8,0-3.3-1.5-3.3-3.3V81.6c0-1.8,1.5-3.3,3.3-3.3h69.7c1.8,0,3.3,1.5,3.3,3.3v45.5
			C128.2,129,126.7,130.4,124.8,130.4z"/>
		<path class="st8" d="M125.5,130.6H54.3c-1.4,0-2.5-1.1-2.5-2.5V81.9h76.3v46C128.2,129.4,127,130.6,125.5,130.6z"/>
		
			<linearGradient id="SVGID_9_" gradientUnits="userSpaceOnUse" x1="71.9" y1="112" x2="109.7" y2="112" gradientTransform="matrix(1 0 0 -1 0 252)">
			<stop  offset="0" style="stop-color:#1A1A1A"/>
			<stop  offset="1" style="stop-color:#292929"/>
		</linearGradient>
		<path class="st25" d="M108.8,141.1h-36c-0.5,0-0.9-0.4-0.9-0.9v-0.4c0-0.5,0.4-0.9,0.9-0.9h36c0.5,0,0.9,0.4,0.9,0.9v0.4
			C109.7,140.7,109.3,141.1,108.8,141.1z"/>
	</g>
	<path class="st10" d="M55.7,80.1c0,0.3-0.3,0.6-0.6,0.6s-0.6-0.3-0.6-0.6c0-0.3,0.3-0.6,0.6-0.6S55.7,79.7,55.7,80.1z"/>
	<path class="st11" d="M57,79.5c-0.3,0-0.6,0.3-0.6,0.6c0,0.3,0.3,0.6,0.6,0.6s0.6-0.3,0.6-0.6C57.5,79.7,57.3,79.5,57,79.5z"/>
	<path class="st12" d="M58.8,79.5c-0.3,0-0.6,0.3-0.6,0.6c0,0.3,0.3,0.6,0.6,0.6s0.6-0.3,0.6-0.6C59.4,79.7,59.1,79.5,58.8,79.5z"/>
</g>
<line class="st26" x1="57.2" y1="89.4" x2="87.9" y2="89.4"/>
<linearGradient id="SVGID_10_" gradientUnits="userSpaceOnUse" x1="42.3933" y1="108.4703" x2="51.5881" y2="98.9488" gradientTransform="matrix(1 0 0 -1 0 252)">
	<stop  offset="0" style="stop-color:#FFFFFF;stop-opacity:0"/>
	<stop  offset="1" style="stop-color:#E6E6E6"/>
</linearGradient>
<ellipse class="st27" cx="47" cy="148.3" rx="9.4" ry="1.6"/>
<linearGradient id="SVGID_11_" gradientUnits="userSpaceOnUse" x1="38.4326" y1="101.4286" x2="58.7035" y2="80.4375" gradientTransform="matrix(1 0 0 -1 0 252)">
	<stop  offset="0" style="stop-color:#FFFFFF;stop-opacity:0"/>
	<stop  offset="1" style="stop-color:#E6E6E6"/>
</linearGradient>
<ellipse class="st28" cx="48.6" cy="161.1" rx="20.9" ry="2"/>
<path class="st29" d="M321,54.2c-4.7-1.9-9.3-1.3-12.9,0.8c-0.8-7.5-7.2-13.3-14.9-13.3c-8.3,0-15,6.7-15,15c0,0.6,0,1.1,0.1,1.6
	c-2.6-0.5-5.4-0.2-8.3,1.6c-2.1,1.2-3.7,3.2-4.5,5.4c-2.9,8.1,3,15.7,10.7,15.7h39.1c9.6,0,17-9.7,12.8-19.9
	C326.8,58.1,324.2,55.5,321,54.2z"/>
<path class="st30" d="M272.5,67.7c-1.8,0-3.5,0.5-4.9,1.3c-0.6-5.1-4.9-9.1-10.2-9.1c-5.7,0-10.3,4.6-10.3,10.3c0,0.4,0,0.8,0.1,1.1
	c-0.5-0.1-1-0.1-1.5-0.1c-4.3,0-7.9,3.5-7.9,7.9c0,4.3,3.5,7.9,7.9,7.9h26.8c5.3,0,9.6-4.3,9.6-9.6S277.8,67.7,272.5,67.7z"/>
<linearGradient id="SVGID_12_" gradientUnits="userSpaceOnUse" x1="232.3702" y1="109.9701" x2="232.3702" y2="55.1286" gradientTransform="matrix(1 0 0 -1 0 252)">
	<stop  offset="0" style="stop-color:#D0E0F8;stop-opacity:0.5"/>
	<stop  offset="1" style="stop-color:#B0CEEA"/>
</linearGradient>
<path class="st31" d="M119.3,145.5c7.3-1,14.7-1.1,22.1-1c9.3,0.1,18.6,0.7,27.9,1.6c10.1,0.9,20.2,2.2,30.3,3.7
	c9.5,1.5,19,3,28.4,5.3c1.6,0.4,3.7,0.8,4.9,2s-1.3,2.3-2.2,2.7c-2.4,1.2-5,2.2-7.5,3c-6.7,2.1-13.6,3.3-20.5,4.3
	c-16.3,2.4-32.7,3.3-49.1,4.5c-7.2,0.5-14.5,1.1-21.7,2c-3,0.4-5.9,0.8-8.8,1.3c-3.6,0.7-7.6,1.8-9.9,4.8c-1.3,1.6-1.7,3.5-1.1,5.5
	c0.1-0.5,0.1-0.9,0.2-1.4c-1.1,2.3,0.9,4.3,2.7,5.4c2.3,1.4,5.1,2.2,7.7,2.9c5.3,1.3,10.8,2,16.2,2.6c23.4,2.5,47.1,1.9,70.6,1.7
	c15.5-0.1,31-0.1,46.5-0.5c7.9-0.2,15.7-0.5,23.6-0.9c5.1-0.3,10.2-0.8,15.3-1c8.7-0.4,17.4-0.3,26.1,0c8.5,0.3,17.4,0.5,25.7,2.7
	c1.3,0.3,2.5,0.7,3.4,1.2c2.1,1.1,4-2.1,1.9-3.2c-2.4-1.3-5.2-1.9-7.9-2.4c-3.7-0.7-7.5-1.1-11.3-1.4c-8.6-0.7-17.3-0.9-25.9-0.9
	c-7.3,0-14.6,0.4-21.9,0.9c-13.9,0.9-27.8,1.3-41.7,1.5c-14,0.2-28,0.2-42.1,0.3c-12.3,0.1-24.5,0.2-36.8-0.2
	c-13.1-0.4-26.5-0.8-39.3-3.7c-1.6-0.4-3.1-0.7-4.7-1.2c-0.6-0.2-1.1-0.4-1.7-0.6c-0.1,0-0.2-0.1-0.3-0.1c-0.3-0.1,0.4,0.2,0,0
	c-0.2-0.1-0.4-0.2-0.7-0.3c-0.4-0.2-0.7-0.4-1.1-0.6c-0.1-0.1-0.3-0.2-0.4-0.3c-0.5-0.3,0,0,0,0c-0.2-0.2-0.4-0.4-0.6-0.5
	c-0.4-0.4,0.2,0.4-0.1-0.1c-0.3-0.5,0,0.1,0,0c-0.1-0.3,0-0.5,0,0.1c0-0.6-0.1,0.4,0,0.1c0.1-0.3-0.1,0.6-0.2,0.4
	c0,0,1.5-11,0.1-0.2c0.1-0.7,0-1,0-1.7c-0.1-1,0.5-1.7,1.2-2.4c2.8-2.5,7-2.9,10.5-3.4c17.1-2.6,34.5-3.1,51.7-4.5
	c9.2-0.8,18.5-1.7,27.6-3.1c7.5-1.2,15.1-2.6,22.1-5.4c3.2-1.3,8.5-3,8.4-7.2c0-4.6-6.6-5.8-10-6.5c-11-2.4-22.1-4.3-33.3-5.9
	c-21-3-42.4-5.2-63.6-4.3c-3.9,0.2-7.8,0.5-11.7,1c-1,0.1-1.5,1.4-1.3,2.3C117.3,145.3,118.3,145.6,119.3,145.5L119.3,145.5z"/>
<g>
	<polygon class="st32" points="174.3,142.4 178.8,143.9 168.3,148.4 150.4,143.9 	"/>
	<g>
		
			<linearGradient id="SVGID_13_" gradientUnits="userSpaceOnUse" x1="150.4268" y1="112.9" x2="165.5268" y2="112.9" gradientTransform="matrix(1 0 0 -1 0 252)">
			<stop  offset="0" style="stop-color:#B0CEEA"/>
			<stop  offset="1" style="stop-color:#D4E3F9"/>
		</linearGradient>
		<polygon class="st33" points="165.5,145.4 150.4,144.1 150.4,132.8 165.5,133.7 		"/>
		
			<linearGradient id="SVGID_14_" gradientUnits="userSpaceOnUse" x1="165.5136" y1="113.7" x2="174.3136" y2="113.7" gradientTransform="matrix(1 0 0 -1 0 252)">
			<stop  offset="0" style="stop-color:#E1EAFF"/>
			<stop  offset="1" style="stop-color:#B0CEEA"/>
		</linearGradient>
		<polygon class="st34" points="174.3,142.5 165.5,145.4 165.5,133.7 174.3,131.2 		"/>
		<polygon class="st3" points="174.3,131.2 160.5,130.3 150.4,132.8 165.5,133.7 		"/>
	</g>
</g>
<g>
	<g>
		<g>
			
				<linearGradient id="SVGID_15_" gradientUnits="userSpaceOnUse" x1="91" y1="133.8" x2="126" y2="133.8" gradientTransform="matrix(1 0 0 -1 0 252)">
				<stop  offset="0" style="stop-color:#0A9B6A"/>
				<stop  offset="1" style="stop-color:#00BC82"/>
			</linearGradient>
			<path class="st35" d="M123.8,124.1H93.2c-1.2,0-2.2-1-2.2-2.2v-7.4c0-1.2,1-2.2,2.2-2.2h30.6c1.2,0,2.2,1,2.2,2.2v7.4
				C126,123.1,125,124.1,123.8,124.1z"/>
			<text transform="matrix(1 0 0 1 104.1534 120.1125)" class="st8 st36 st37">APPROVE</text>
			<path class="st8" d="M97.9,122.2c-2.2,0-4-1.8-4-4s1.8-4,4-4s4,1.8,4,4C101.9,120.4,100.1,122.2,97.9,122.2z M97.9,114.6
				c-2,0-3.6,1.6-3.6,3.6s1.6,3.6,3.6,3.6s3.6-1.6,3.6-3.6S99.9,114.6,97.9,114.6z"/>
			<path class="st8" d="M97.2,120c-0.1,0-0.2,0-0.3-0.1l-1.4-1.4c-0.2-0.2-0.2-0.4,0-0.6s0.4-0.2,0.6,0l1.1,1.1l2.5-2.5
				c0.2-0.2,0.4-0.2,0.6,0s0.2,0.4,0,0.6l-2.8,2.8C97.4,120,97.3,120,97.2,120z"/>
		</g>
		<g>
			
				<linearGradient id="SVGID_16_" gradientUnits="userSpaceOnUse" x1="-29.3322" y1="133.8" x2="-29.159" y2="133.8" gradientTransform="matrix(1 0 0 -1 0 252)">
				<stop  offset="0" style="stop-color:#F84E49"/>
				<stop  offset="1" style="stop-color:#EF3534"/>
			</linearGradient>
			<path class="st38" d="M85.4,124.1H55.2c-1.3,0-2.4-1.1-2.4-2.4v-7c0-1.3,1.1-2.4,2.4-2.4h30.2c1.3,0,2.4,1.1,2.4,2.4v7
				C87.8,123,86.7,124.1,85.4,124.1z"/>
			<text transform="matrix(1 0 0 1 65.9688 120.1125)" class="st8 st36 st37">DECLINE</text>
			<g>
				<path class="st8" d="M59.7,122.2c-2.2,0-4-1.8-4-4s1.8-4,4-4s4,1.8,4,4C63.8,120.4,61.9,122.2,59.7,122.2z M59.7,114.6
					c-2,0-3.6,1.6-3.6,3.6s1.6,3.6,3.6,3.6s3.6-1.6,3.6-3.6S61.7,114.6,59.7,114.6z"/>
				<path class="st8" d="M58.3,120c-0.1,0-0.2,0-0.3-0.1c-0.2-0.2-0.2-0.4,0-0.6l2.8-2.8c0.2-0.2,0.4-0.2,0.6,0s0.2,0.4,0,0.6
					l-2.8,2.8C58.6,120,58.5,120,58.3,120z"/>
				<path class="st8" d="M61.1,120c-0.1,0-0.2,0-0.3-0.1l-2.8-2.8c-0.2-0.2-0.2-0.4,0-0.6s0.4-0.2,0.6,0l2.8,2.8
					c0.2,0.2,0.2,0.4,0,0.6C61.3,120,61.2,120,61.1,120z"/>
			</g>
		</g>
	</g>
	<g>
		<circle class="st39" cx="89.1" cy="98.1" r="8.6"/>
		<g>
			<path class="st40" d="M85.2,95.8c0-0.4,0.1-0.9,0.4-1.3c0.3-0.5,0.7-0.8,1.2-1.1c0.5-0.3,1.2-0.4,1.9-0.4c0.7,0,1.3,0.1,1.8,0.4
				c0.5,0.2,0.9,0.6,1.2,1c0.3,0.4,0.4,0.9,0.4,1.4c0,0.4-0.1,0.7-0.2,1c-0.2,0.3-0.4,0.6-0.6,0.8c-0.2,0.2-0.6,0.6-1.2,1.1
				c-0.2,0.1-0.3,0.3-0.4,0.4s-0.2,0.2-0.2,0.3c0,0.1-0.1,0.2-0.1,0.3c0,0.1-0.1,0.3-0.1,0.5c-0.1,0.5-0.4,0.7-0.8,0.7
				c-0.2,0-0.4-0.1-0.6-0.2c-0.2-0.2-0.2-0.4-0.2-0.7c0-0.4,0.1-0.7,0.2-1s0.3-0.5,0.5-0.8c0.2-0.2,0.5-0.5,0.8-0.8s0.5-0.5,0.6-0.6
				s0.2-0.3,0.3-0.4s0.1-0.3,0.1-0.5c0-0.4-0.1-0.7-0.4-0.9c-0.3-0.3-0.6-0.4-1.1-0.4s-0.9,0.1-1.1,0.4s-0.4,0.6-0.6,1.1
				s-0.5,0.8-0.9,0.8c-0.3,0-0.5-0.1-0.7-0.3C85.3,96.2,85.2,96,85.2,95.8z M88.7,103.5c-0.3,0-0.5-0.1-0.7-0.3
				c-0.2-0.2-0.3-0.4-0.3-0.8c0-0.3,0.1-0.5,0.3-0.7c0.2-0.2,0.5-0.3,0.8-0.3s0.5,0.1,0.7,0.3c0.2,0.2,0.3,0.4,0.3,0.7
				c0,0.3-0.1,0.6-0.3,0.8S88.9,103.5,88.7,103.5z"/>
		</g>
	</g>
</g>
<g>
	
		<linearGradient id="SVGID_17_" gradientUnits="userSpaceOnUse" x1="163.4" y1="122.0753" x2="163.4" y2="125.7612" gradientTransform="matrix(1 0 0 -1 0 252)">
		<stop  offset="0" style="stop-color:#55C3FF"/>
		<stop  offset="0.1364" style="stop-color:#60C6FF;stop-opacity:0.9727"/>
		<stop  offset="0.3742" style="stop-color:#7CCEFF;stop-opacity:0.9252"/>
		<stop  offset="0.685" style="stop-color:#ABDBFF;stop-opacity:0.863"/>
		<stop  offset="1" style="stop-color:#E1EAFF;stop-opacity:0.8"/>
	</linearGradient>
	<ellipse class="st41" cx="163.4" cy="128.1" rx="11.7" ry="1.8"/>
	<g>
		<g class="st1">
			<path d="M169.9,127.2h-10.5c-1,0-1.8-0.8-1.8-1.8V118c0-1,0.8-1.8,1.8-1.8h10.5c1,0,1.8,0.8,1.8,1.8v7.3
				C171.7,126.3,170.9,127.2,169.9,127.2z"/>
			<path d="M169.8,116.1h-1.6v-4.6c0-0.4-0.3-0.7-0.7-0.7h-5.9c-0.4,0-0.7,0.3-0.7,0.7v4.6h-1.6v-4.6c0-1.2,1-2.2,2.2-2.2h5.9
				c1.2,0,2.2,1,2.2,2.2v4.6H169.8z"/>
			<path class="st42" d="M166,122.5c0-0.7-0.6-1.4-1.4-1.4s-1.4,0.6-1.4,1.4c0,0.5,0.3,1,0.8,1.2v1.6h1.2v-1.6
				C165.7,123.5,166,123,166,122.5z"/>
		</g>
		<g>
			<g>
				<path class="st43" d="M168.9,127.2h-10.5c-1,0-1.8-0.8-1.8-1.8V118c0-1,0.8-1.8,1.8-1.8h10.5c1,0,1.8,0.8,1.8,1.8v7.3
					C170.7,126.3,169.9,127.2,168.9,127.2z"/>
				<path class="st44" d="M168.8,116.1h-1.6v-4.6c0-0.4-0.3-0.7-0.7-0.7h-5.9c-0.4,0-0.7,0.3-0.7,0.7v4.6h-1.6v-4.6
					c0-1.2,1-2.2,2.2-2.2h5.9c1.2,0,2.2,1,2.2,2.2v4.6H168.8z"/>
				<path class="st42" d="M165,122.5c0-0.7-0.6-1.4-1.4-1.4s-1.4,0.6-1.4,1.4c0,0.5,0.3,1,0.8,1.2v1.6h1.2v-1.6
					C164.7,123.5,165,123,165,122.5z"/>
			</g>
		</g>
	</g>
	
		<linearGradient id="SVGID_18_" gradientUnits="userSpaceOnUse" x1="163.4" y1="122.1" x2="163.4" y2="163.8742" gradientTransform="matrix(1 0 0 -1 0 252)">
		<stop  offset="0" style="stop-color:#0078E9"/>
		<stop  offset="9.456424e-02" style="stop-color:#0B7DEA;stop-opacity:0.9054"/>
		<stop  offset="0.2595" style="stop-color:#278CED;stop-opacity:0.7405"/>
		<stop  offset="0.4751" style="stop-color:#56A4F1;stop-opacity:0.5249"/>
		<stop  offset="0.7332" style="stop-color:#97C4F8;stop-opacity:0.2668"/>
		<stop  offset="1" style="stop-color:#E1EAFF;stop-opacity:0"/>
	</linearGradient>
	<path class="st45" d="M175.1,128.1c0,1-5.2,1.8-11.7,1.8c-6.4,0-11.7-0.8-11.7-1.8V90c0-1,5.2-1.8,11.7-1.8
		c6.4,0,11.7,0.8,11.7,1.8V128.1z"/>
</g>
<g>
	<g>
		<path class="st46" d="M53,125.8c0,0,1.5,0.4,2.5,0.1s2.6,0.2,2.9,0.5c0.3,0.3,0.2,0.5-0.3,0.6s-2.1,0.8-3.2,0.4
			c-1.1-0.4-2.5-0.4-2.5-0.4L53,125.8z"/>
		<path class="st47" d="M40.1,112.8c0,0,1.7,12,4.5,13c1.4,0.5,7.5,1.7,9.3,1.8c0,0,0.4-0.4,0.3-1.8c0,0-6.4-2.3-7.3-3.6
			c-1.3-1.9,0.8-7.7-0.9-9.5C44.3,110.9,41.5,110.2,40.1,112.8z"/>
	</g>
	<path class="st48" d="M40.3,158.9v-2.6h-4.1c-0.1,0-0.2-0.1-0.2-0.2v-0.4c0-0.1,0.1-0.2,0.2-0.2h4.1v-14.9c0-0.4,0.3-0.8,0.8-0.8
		h0.8c0.4,0,0.8,0.3,0.8,0.8v14.9h4.1c0.1,0,0.2,0.1,0.2,0.2v0.4c0,0.1-0.1,0.2-0.2,0.2h-4.1v2.6c3,0.2,5.4,1.3,6,2.7H34.3
		C34.9,160.2,37.3,159.1,40.3,158.9z"/>
	<path class="st48" d="M40.6,138c0.5,0.8,1.1,1.6,1.6,2.4c1.8,2.3,3.8,4.2,4.1,5.9c0.1,0.4,0.2,0.7,0.3,1.1c0.1,0.4,0.3,0.8,0.5,1.3
		c0.8,1.7,1.9,3.5,3.1,5.2c2,2.9,3.8,5.4,3.8,5.4l3.4-0.1c-0.1-0.3-1.6-4.4-3.6-9.4c-0.8-2-1.7-4.2-2.5-6.2
		c-0.1-0.3-0.2-0.6-0.3-0.8c-0.3-0.6-0.5-1.3-0.7-1.9c-1.9-4.7-3.4-8.4-3.4-8.4s-7.5-2.8-8.3-1C38.1,133.1,38.6,134.6,40.6,138z"/>
	<path class="st49" d="M54.3,158.7c0,0,0.2,2.8,0.7,2.9c0.1,0,6.2,0,6.2,0s0-0.9-1.1-1c-1-0.2-2.7-0.9-3.3-2.2
		C56.2,156.9,54.3,158.7,54.3,158.7z"/>
	<path class="st49" d="M46.3,150.6c0,0-2.4,1.5-2.1,2c0,0.1,1.3,2.4,1.3,2.4l1.7,3c0,0,0.7-0.4,0.4-1.4s-0.5-2.8,0.3-4
		C48.8,151.5,46.3,150.6,46.3,150.6z"/>
	<path class="st50" d="M49.5,131.2c0,0,9.5,5.9,10.5,9.8c1,3.9-12.5,12.3-12.5,12.3S46,152,45.8,151c0,0,6.1-7.3,7.5-9
		c0.8-1-12.1-3.5-13.6-5.9c-1.6-2.4-1-4.5-1-4.5L49.5,131.2z"/>
	<path class="st51" d="M31.8,138.7H51c0.4,0,0.7,0.3,0.7,0.7v3.8c0,0.4-0.3,0.7-0.7,0.7H31.8c-0.4,0-0.7-0.3-0.7-0.7v-3.8
		C31.1,139,31.4,138.7,31.8,138.7z"/>
	<path class="st46" d="M40.7,110.5c0,0,3.7,2.1,6,1.5c0,0-0.5-0.7-1.4-1.3c0-0.2,0.1-0.4,0.1-0.6c0.2-1.1,0.3-1.7,0.3-1.7l-1.7-1.5
		c-0.5,0.1-0.9,0.2-1.2,0.2c0,0.1,0,0.2-0.1,0.3C42.1,109.5,40.7,110.5,40.7,110.5z"/>
	<path class="st52" d="M38.3,121.3c0.3,4.3-0.1,10.9,0.3,12.1c0.3,1,3.9,0.4,5.3,0.1c0.5-0.1,1.2-0.3,1.8-0.5c1.9-0.6,3.9-1.4,4.1-2
		c0,0,0,0,0-0.1l0,0l0,0c0-0.1,0-0.1,0-0.2c-0.1-0.3-0.4-0.6-0.4-1.4c0-0.9,0-1.9-0.1-3c0-0.1,0-0.3,0-0.4l0,0c0,0,0,0,0-0.1
		c0-1.2-0.1-2.5-0.2-3.7c0-0.8-0.1-1.6-0.2-2.3c-0.2-1.9-0.4-3.7-0.7-4.8c-0.5-1.8-1.5-2.9-2.5-3.8l-0.7-0.6
		c-0.8,0.2-1.7,0.1-2.5-0.3c-0.9-0.4-1.2-0.7-1.3-0.6C39.4,111.2,37.9,116,38.3,121.3z"/>
	<path class="st47" d="M45.7,133c1.9-0.6,3.9-1.4,4.1-2c0,0,0,0,0-0.1l0,0l0,0c0-0.1,0-0.1,0-0.2c-0.1-0.3-0.4-0.6-0.4-1.4
		c0-0.9,0-1.9-0.1-3c0-0.1,0-0.3,0-0.4l0,0c0,0,0,0,0-0.1l-7-3.2C42.4,122.6,42,128.3,45.7,133z"/>
	<path class="st53" d="M42.6,107.4c0.3,0.6,1,2.2,2.7,2.7c0.2-1.1,0.3-1.7,0.3-1.7l-1.7-1.5c-0.5,0.1-0.9,0.2-1.2,0.2
		C42.7,107.2,42.7,107.3,42.6,107.4z"/>
	<path class="st46" d="M46.3,108.3c0,0-3.7,0.4-3.9-1.9s-0.9-3.8,1.5-4.2c2.3-0.4,2.9,0.5,3.2,1.2C47.3,104.3,47.2,108.2,46.3,108.3
		z"/>
	<path class="st48" d="M42.4,106.6c0,0,0.2-3.1,3.6-3.4c2.3-0.2,1-2.2,0.8-2.5c0,0-1.8,0.2-3.6,0.5C39.4,101.9,42,106.1,42.4,106.6z
		"/>
	<polygon class="st50" points="51.2,128.1 60.4,128.3 63,120.3 63.3,120.4 60.6,128.9 51.2,128.7 	"/>
	<g>
		<path class="st46" d="M52.2,127.6c0,0,1.4,0.5,2.4,0.4c1-0.2,2.6,0.5,2.8,0.8c0.2,0.4,0.1,0.5-0.4,0.6s-2.2,0.6-3.3,0.1
			c-1-0.5-2.5-0.7-2.5-0.7L52.2,127.6z"/>
		<path class="st54" d="M40.8,113.3c0,0,0.4,12.1,3,13.5c1.3,0.7,7.2,2.5,9,2.9c0,0,0.5-0.3,0.5-1.8c0,0-6.1-3-6.8-4.4
			c-1.1-2,1.7-7.6,0.2-9.5C45.2,111.9,42.5,110.8,40.8,113.3z"/>
	</g>
</g>
<g>
	
		<linearGradient id="SVGID_19_" gradientUnits="userSpaceOnUse" x1="480.5259" y1="94.0603" x2="493.8642" y2="80.2481" gradientTransform="matrix(1 0 0 -1 0 252)">
		<stop  offset="0" style="stop-color:#FFFFFF;stop-opacity:0"/>
		<stop  offset="1" style="stop-color:#E6E6E6"/>
	</linearGradient>
	<ellipse class="st55" cx="487.2" cy="164.8" rx="13.8" ry="1.3"/>
	
		<linearGradient id="SVGID_20_" gradientUnits="userSpaceOnUse" x1="536.6235" y1="99.9478" x2="549.9617" y2="86.1355" gradientTransform="matrix(1 0 0 -1 0 252)">
		<stop  offset="0" style="stop-color:#FFFFFF;stop-opacity:0"/>
		<stop  offset="1" style="stop-color:#E6E6E6"/>
	</linearGradient>
	<ellipse class="st56" cx="543.3" cy="159" rx="13.8" ry="1.3"/>
	<g>
		<g>
			<g class="st1">
				<path d="M543,146.4c0,2-12.3,3.6-27.5,3.6c-15.2,0-27.5-1.6-27.5-3.6v-3.2c0-2,12.3-3.6,27.5-3.6c15.2,0,27.5,1.6,27.5,3.6
					V146.4z"/>
			</g>
			<g>
				
					<linearGradient id="SVGID_21_" gradientUnits="userSpaceOnUse" x1="487.3845" y1="108.5064" x2="542.3935" y2="108.5064" gradientTransform="matrix(1 0 0 -1 0 252)">
					<stop  offset="0" style="stop-color:#E3EBFF"/>
					<stop  offset="0.6322" style="stop-color:#FFFFFF"/>
					<stop  offset="1" style="stop-color:#E1EAFF"/>
				</linearGradient>
				<path class="st57" d="M542.3,145.1c0,2-12.3,3.6-27.5,3.6c-15.2,0-27.5-1.6-27.5-3.6v-3.2c0-2,12.3-3.6,27.5-3.6
					c15.2,0,27.5,1.6,27.5,3.6V145.1z"/>
			</g>
		</g>
		<ellipse class="st3" cx="514.9" cy="141.9" rx="27.5" ry="3.6"/>
	</g>
	<g>
		<g>
			
				<linearGradient id="SVGID_22_" gradientUnits="userSpaceOnUse" x1="509.4673" y1="114.9219" x2="521.9036" y2="114.9219" gradientTransform="matrix(1 0 0 -1 0 252)">
				<stop  offset="0" style="stop-color:#1A1A1A"/>
				<stop  offset="1" style="stop-color:#292929"/>
			</linearGradient>
			<rect x="509.4" y="133.5" class="st58" width="12.4" height="7.2"/>
			<rect x="509.4" y="133.5" class="st5" width="12.4" height="2.7"/>
			
				<linearGradient id="SVGID_23_" gradientUnits="userSpaceOnUse" x1="475.2194" y1="145.3217" x2="554.5088" y2="145.3217" gradientTransform="matrix(1 0 0 -1 0 252)">
				<stop  offset="0" style="stop-color:#1A1A1A"/>
				<stop  offset="1" style="stop-color:#292929"/>
			</linearGradient>
			<path class="st59" d="M548.6,134.9h-67.4c-3.3,0-5.9-2.6-5.9-5.9V84.4c0-3.3,2.6-5.9,5.9-5.9h67.4c3.3,0,5.9,2.6,5.9,5.9V129
				C554.5,132.2,551.9,134.9,548.6,134.9z"/>
			<path class="st7" d="M548.7,132.3H481c-2,0-3.8-1.6-3.8-3.8V84.7c0-2,1.6-3.8,3.8-3.8h67.6c2,0,3.8,1.6,3.8,3.8v43.9
				C552.4,130.6,550.8,132.3,548.7,132.3z"/>
			<path class="st8" d="M548.7,132.4H481c-2,0-3.7-1.6-3.7-3.7V84.5h75.1v44.2C552.4,130.8,550.8,132.4,548.7,132.4z"/>
			
				<linearGradient id="SVGID_24_" gradientUnits="userSpaceOnUse" x1="497.0651" y1="110.2501" x2="534.2422" y2="110.2501" gradientTransform="matrix(1 0 0 -1 0 252)">
				<stop  offset="0" style="stop-color:#1A1A1A"/>
				<stop  offset="1" style="stop-color:#292929"/>
			</linearGradient>
			<path class="st60" d="M533.4,142.8h-35.5c-0.5,0-0.9-0.4-0.9-0.9v-0.4c0-0.5,0.4-0.9,0.9-0.9h35.5c0.5,0,0.9,0.4,0.9,0.9v0.4
				C534.2,142.4,533.9,142.8,533.4,142.8z"/>
		</g>
		<path class="st10" d="M481.1,82.7c0,0.3-0.3,0.6-0.6,0.6s-0.6-0.3-0.6-0.6c0-0.3,0.3-0.6,0.6-0.6
			C480.9,82.1,481.1,82.4,481.1,82.7z"/>
		<path class="st11" d="M482.4,82.1c-0.3,0-0.6,0.3-0.6,0.6s0.3,0.6,0.6,0.6s0.6-0.3,0.6-0.6C482.9,82.4,482.7,82.1,482.4,82.1z"/>
		<path class="st12" d="M484.2,82.1c-0.3,0-0.6,0.3-0.6,0.6s0.3,0.6,0.6,0.6s0.6-0.3,0.6-0.6S484.5,82.1,484.2,82.1z"/>
	</g>
	<g>
		<g>
			<rect x="484.2" y="100.2" class="st11" width="4" height="11.3"/>
			<rect x="498.2" y="97" class="st61" width="4" height="14.5"/>
			<rect x="505.2" y="106.7" class="st62" width="4" height="4.9"/>
			<rect x="491.1" y="108.3" class="st54" width="4" height="3.2"/>
		</g>
		<polyline class="st63" points="513.3,111.5 480.9,111.5 480.9,88.9 		"/>
		<polyline class="st63" points="550.4,111.5 518.1,111.5 518.1,88.9 		"/>
	</g>
	<g>
		<polygon class="st64" points="518.3,111.9 517.9,111.2 524.6,106.2 527.8,108.6 535.7,101.5 544.7,99 544.9,99.8 536.1,102.2 
			527.9,109.6 524.6,107.2 		"/>
		<circle class="st61" cx="524.6" cy="106.7" r="1.1"/>
		<circle class="st61" cx="527.8" cy="109.1" r="1.1"/>
		<circle class="st61" cx="536.3" cy="101.4" r="1.1"/>
	</g>
	<g>
		<path class="st65" d="M546,118h-25.9c-0.7,0-1.2-0.3-1.2-0.8c0-0.5,0.5-0.8,1.2-0.8H546c0.7,0,1.2,0.3,1.2,0.8
			C547.2,117.7,546.7,118,546,118z"/>
		<path class="st65" d="M546,121.9h-25.9c-0.7,0-1.2-0.3-1.2-0.8s0.5-0.8,1.2-0.8H546c0.7,0,1.2,0.3,1.2,0.8S546.7,121.9,546,121.9z
			"/>
		<path class="st65" d="M546,125.8h-25.9c-0.7,0-1.2-0.3-1.2-0.8c0-0.5,0.5-0.8,1.2-0.8H546c0.7,0,1.2,0.3,1.2,0.8
			C547.2,125.4,546.7,125.8,546,125.8z"/>
		<path class="st65" d="M546,129.6h-25.9c-0.7,0-1.2-0.3-1.2-0.8s0.5-0.8,1.2-0.8H546c0.7,0,1.2,0.3,1.2,0.8S546.7,129.6,546,129.6z
			"/>
	</g>
	<g>
		
			<rect x="537.5" y="140" transform="matrix(1 -8.310670e-03 8.310670e-03 1 -1.1883 4.483)" class="st66" width="2.6" height="10.5"/>
		<path class="st67" d="M537.6,140.3c0.8,0,1.5-0.1,2.2-0.3h0.3v1.9c-0.8,0.2-1.6,0.3-2.5,0.3c-0.1,0-0.1,0-0.2,0v-1.9
			C537.5,140.3,537.5,140.3,537.6,140.3z"/>
		<path class="st68" d="M538.5,158.9h0.9c0.9,0,1.7-0.8,1.7-1.7l-0.1-11.3c0-0.9-0.8-1.7-1.7-1.7h-0.9c-0.9,0-1.7,0.8-1.7,1.7
			l0.1,11.3C536.7,158.1,537.5,158.9,538.5,158.9z"/>
		<path class="st67" d="M537.9,144.2h1.4c-0.7,0-1.3,0.6-1.3,1.3l0.1,12.1c0,0.7,0.6,1.3,1.3,1.3h-1.4c-0.7,0-1.3-0.6-1.3-1.3
			l-0.1-12.1C536.6,144.8,537.2,144.2,537.9,144.2z"/>
		<path class="st66" d="M528.6,131.3c0.1,5.6,4.6,10.1,10.1,10c5.6-0.1,10.1-4.6,10-10.1c-0.1-5.6-4.6-10.1-10.1-10
			C533.1,121.2,528.6,125.8,528.6,131.3z M530.6,131.3c-0.1-4.5,3.6-8.2,8.1-8.2c4.5-0.1,8.2,3.6,8.2,8.1c0.1,4.5-3.6,8.2-8.1,8.2
			C534.2,139.4,530.6,135.8,530.6,131.3z"/>
		<path class="st67" d="M529.9,131.3c0.1,4.9,4,8.8,8.8,8.7c4.9-0.1,8.8-4,8.7-8.8c-0.1-4.9-4-8.8-8.8-8.7
			C533.8,122.5,529.9,126.4,529.9,131.3z M530.6,131.3c-0.1-4.5,3.6-8.2,8.1-8.2c4.5-0.1,8.2,3.6,8.2,8.1c0.1,4.5-3.6,8.2-8.1,8.2
			C534.2,139.4,530.6,135.8,530.6,131.3z"/>
		<ellipse class="st69" cx="538.7" cy="131.2" rx="8.2" ry="8.2"/>
		<path class="st70" d="M544.4,125.4c1.8,1.8,2.6,4.1,2.4,6.5c-0.2-1.8-1-3.6-2.4-5c-3.2-3.2-8.4-3.1-11.5,0.1
			c-1.4,1.4-2.2,3.2-2.3,5.1c-0.3-2.3,0.5-4.7,2.3-6.5C536,122.3,541.2,122.3,544.4,125.4z"/>
		<g class="st71">
			<path class="st8" d="M546.8,130.2c0.2,1.6-0.1,3.2-0.9,4.7l-14.5,0.1c-0.8-1.4-1.1-3.1-0.9-4.7L546.8,130.2z"/>
			<path class="st8" d="M545.6,126.9c0.5,0.7,0.8,1.5,1,2.3l-15.8,0.1c0.2-0.8,0.5-1.6,1-2.4L545.6,126.9z"/>
		</g>
	</g>
	<g>
		<g id="XMLID_1_">
			<path id="XMLID_11_" class="st72" d="M545,116.6c0,0-0.8,0.2-0.8,1.4c0,1.2-0.3,1.4-0.3,1.4s0.2,1.2,0.5,1.5
				c0.3,0.3,1.1,0.3,1.1,0.3l0.2,0.9h2.1l-0.2-2.5C547.5,119.5,545.8,116.7,545,116.6z"/>
			<path id="XMLID_10_" class="st72" d="M546.4,143.5c0,0,0.3,4.5-0.9,14.8H544l-0.1-14.1L546.4,143.5z"/>
			<path id="XMLID_9_" class="st72" d="M548.3,142.9c0,0,1.1,5,1.3,14.4l-1.3,0.5l-2.2-13.9L548.3,142.9z"/>
			<path id="XMLID_8_" class="st51" d="M543.5,128.7c0.1,1.7,0.3,3.1,0.3,3.1h0.5l4.8-0.1c0,0,1.1-7,1-8.3c-0.1-1.4-2.1-1.7-2.1-1.7
				s-2.8,0-3.7,0.7C543.3,123.1,543.3,126.2,543.5,128.7z"/>
			<path id="XMLID_7_" class="st73" d="M543.7,131.6c0,0-1.8,4,0.1,14.1h5.3c0,0,1.1-6.3,1-9.4c-0.1-3.1-1.1-4.7-1.1-4.7
				L543.7,131.6z"/>
			<path id="XMLID_6_" class="st73" d="M545.6,158.1c0,0,0.3,1.3,0.1,1.4s-1.7,0.1-2.1,0.1c-0.5-0.1-1.1,0.1-1.6-0.2s2-1.2,2-1.2
				L545.6,158.1z"/>
			<path id="XMLID_5_" class="st73" d="M549.7,157c0,0,0.8,1.1,0.7,1.3c-0.1,0.2-1.4,0.8-1.9,0.9c-0.5,0.1-1,0.5-1.6,0.5
				c-0.6,0,1.4-1.9,1.4-1.9L549.7,157z"/>
			<path id="XMLID_4_" class="st72" d="M538.5,133.3c0,0-0.6,0.3-1,0.3c-0.4,0-1.4-0.5-1.8-0.5c-0.4,0-0.7,0.2-0.8,0
				c-0.1-0.1,0.7-0.5,0.9-0.6s0.5-0.3,0.6-0.4c0.1-0.1,1.5,0.1,1.5,0.1L538.5,133.3z"/>
			<path id="XMLID_3_" class="st51" d="M544.7,122.6c0,0,0.7,0.9,0.6,3.1c-0.1,2.2-0.7,5.6-1.4,6.6c-0.7,1.1-5.5,1.3-5.5,1.3
				l-0.9-1.6l4.8-1.4c0,0,0.9-7,1.4-7.6S544.7,122.6,544.7,122.6z"/>
			<path id="XMLID_2_" class="st73" d="M545.2,117.6c0,0-0.1,0.4,0.3,0.9c0,0-0.1,0.3,0.1,0.7c0.2,0.3,0-0.5,0.6-0.5
				c0.6,0,0.4,1.1,0.3,1.3s-0.5,0.2-0.5,0.2s-0.4,1.7,0.1,3.3c0.5,1.5,2.9,1.3,3.7,0.1c0.8-1.1,0-3.2-0.5-4.4
				c-0.5-1.3-0.5-3.1-2.2-3.5c-1.7-0.4-2.8-0.1-3.4,0.9c-0.5,1.1,0,1.6,0.1,1.7c0.2,0.1,0.7-0.5,0.7-0.5L545.2,117.6z"/>
		</g>
	</g>
	<g>
		<path class="st65" d="M509.6,118h-25.9c-0.7,0-1.2-0.3-1.2-0.8c0-0.5,0.5-0.8,1.2-0.8h25.9c0.7,0,1.2,0.3,1.2,0.8
			C510.8,117.7,510.3,118,509.6,118z"/>
		<path class="st65" d="M509.6,121.9h-25.9c-0.7,0-1.2-0.3-1.2-0.8s0.5-0.8,1.2-0.8h25.9c0.7,0,1.2,0.3,1.2,0.8
			S510.3,121.9,509.6,121.9z"/>
		<path class="st65" d="M509.6,125.8h-25.9c-0.7,0-1.2-0.3-1.2-0.8c0-0.5,0.5-0.8,1.2-0.8h25.9c0.7,0,1.2,0.3,1.2,0.8
			C510.8,125.4,510.3,125.8,509.6,125.8z"/>
		<path class="st65" d="M509.6,129.6h-25.9c-0.7,0-1.2-0.3-1.2-0.8s0.5-0.8,1.2-0.8h25.9c0.7,0,1.2,0.3,1.2,0.8
			S510.3,129.6,509.6,129.6z"/>
	</g>
	<g>
		<g>
			<path class="st74" d="M486.9,146.4c0.7,0.1,4.3-0.9,6-2.2c0,0-2-7.7-2-9.6c0.1-1.9-1-5.9-2.3-2.9
				C487.2,134.6,486.9,146.4,486.9,146.4z"/>
			<polygon class="st75" points="487,162.1 486.9,163.5 489.8,165.2 484.9,165.2 485.6,161.8 			"/>
			<path class="st76" d="M483.9,143c-0.1,2.3,1.4,20.2,1.4,20.2l1.8,0.3l2.6-20.3L483.9,143z"/>
			<polygon class="st75" points="489.5,162.1 489.4,163.5 492.3,165.2 487.4,165.2 488.1,161.8 			"/>
			<path class="st77" d="M486.4,143c-0.1,2.3,1.4,20.2,1.4,20.2l1.8,0.3l1.8-20.5L486.4,143z"/>
			<path class="st78" d="M485.6,144.5c3.9,0.1,5.9-1,6.1-1.3c0.2-0.3-0.1-0.7-0.2-1.1c-0.5-2-1.8-7.2-1.8-8.8c0.1-1.9-1-5.9-2.3-2.9
				C486.1,133.4,485.6,144.5,485.6,144.5z"/>
			<g>
				<polygon class="st79" points="506.4,135.4 496.3,143.8 493.8,139.2 502.6,132.7 				"/>
				<polygon class="st8" points="505.7,135.5 496.4,143 494.2,139.2 502.5,133.1 				"/>
				<polygon class="st76" points="505.9,134.6 505.6,135 503.1,133.2 503.4,133 				"/>
			</g>
			<g>
				<path class="st74" d="M499.6,130l0.2,1.8c0,0-6.6,7-12.7,0.3l0.5-3.9C487.5,128.1,491.4,136.2,499.6,130z"/>
				<path class="st80" d="M499.6,130c0.9-0.3,1.2-1.2,1.6-0.2c0.9,1.8-1.4,2-1.4,2L499.6,130z"/>
				<path class="st76" d="M500.3,126.5l1.4,5.1v0.7l-0.4-0.5l-1.3-5.1C499.8,126.3,500.1,126.2,500.3,126.5z"/>
				<path class="st80" d="M500.4,130.2c0,0,1,0.3,1.1,0.1c0.1-0.2-0.8-0.6-1-0.9c-0.2-0.3-0.6,0.5-0.6,0.5L500.4,130.2z"/>
			</g>
			<polygon class="st80" points="486.3,127.3 488.2,124.2 489.4,125.5 489,129.2 			"/>
			<path class="st81" d="M491.6,123.4c0.7-7-2,3.4-2.6,3.3c-1.4-0.3-1.6-2.8-1.6-2.8C486.9,121.2,492,119.6,491.6,123.4z"/>
			<path class="st80" d="M491.6,123c-0.2,2.2-1.1,3.6-2.6,3.3c-1.4-0.3-2-2.8-2-2.8C486.5,120.8,492,119.2,491.6,123z"/>
			<polygon class="st78" points="489.3,127 487,125.7 486.3,126.9 489.8,128.8 			"/>
			<path class="st43" d="M500.5,139.2l-0.3,2.1c0.1,0.1-7.3,2.8-10.5-5.4c0,0,0.8,4.9,2,9c0,0-3.6,2.4-8.4,1.5
				c0,0-0.7-14.7,2.6-19.3c1.7-2.4,4.1,1.5,4.7,4C491.3,134.2,493.1,141.2,500.5,139.2z"/>
			<path class="st80" d="M500.5,139.2c0,0,1.3-0.3,1.8,0c0.5,0.3-0.2,1.3-0.7,1.9s-1.3,0.2-1.3,0.2L500.5,139.2z"/>
			<path class="st82" d="M491.1,120.1c-1.8-1.2-3.2,0.3-3.2,0.3s-1.1,0-1.5,1.6c-0.4,1.3,1.3,3.2,1.3,3.2s0.1-0.5,0-1
				c-0.5-0.5-0.5-1.6,0.2-1c0.1-0.7,0.1-1,0.4-0.8c0.3,0.2,1.2,0.4,2.2,0.2c0.1,0.3,0.4,0.5,0.7,0.6
				C491.1,123.2,493.4,123.1,491.1,120.1z"/>
		</g>
	</g>
</g>
<path class="st83" d="M150.3,72.4c-0.1-0.5-0.2-1-0.4-1.6c-0.2-0.5-0.4-1-0.7-1.4l-1.7,0.9c-0.3-0.5-0.7-0.9-1.1-1.2l1.1-1.7
	c-0.9-0.7-1.8-1.1-2.9-1.4l-0.6,1.9c-0.5-0.1-1.1-0.1-1.7-0.1l-0.4-1.9c-0.5,0.1-1,0.2-1.6,0.4c-0.5,0.2-1,0.4-1.4,0.7l0.9,1.7
	c-0.5,0.3-0.9,0.7-1.2,1.1l-1.7-1.1c-0.7,0.9-1.1,1.8-1.4,2.9l1.9,0.6c-0.1,0.5-0.1,1.1-0.1,1.7l-1.9,0.4c0.1,0.5,0.2,1,0.4,1.6
	c0.2,0.5,0.4,1,0.7,1.4l1.7-0.9c0.3,0.5,0.7,0.9,1.1,1.2l-1.1,1.7c0.9,0.7,1.8,1.1,2.9,1.4l0.6-1.9c0.5,0.1,1.1,0.1,1.7,0.1l0.4,1.9
	c0.5-0.1,1-0.2,1.6-0.4c0.5-0.2,1-0.4,1.4-0.7l-0.9-1.7c0.5-0.3,0.9-0.7,1.2-1.1l1.7,1.1c0.7-0.9,1.1-1.8,1.4-2.9l-1.9-0.6
	c0.1-0.5,0.1-1.1,0.1-1.7L150.3,72.4z M143.9,76.3c-1.6,0.6-3.3-0.2-3.9-1.8c-0.6-1.6,0.2-3.3,1.8-3.9s3.3,0.2,3.9,1.8
	C146.3,74,145.5,75.7,143.9,76.3z"/>
<path class="st18" d="M132.9,61.6l0.4-1.1c-0.8-0.3-1.6-0.5-2.5-0.5l-0.1,1.2c-0.5,0-0.9,0.1-1.4,0.3l-0.5-1.1
	c-0.4,0.1-0.8,0.3-1.1,0.6c-0.4,0.2-0.7,0.5-1,0.8l0.8,0.9c-0.3,0.3-0.6,0.7-0.8,1.2l-1.1-0.4c-0.3,0.8-0.5,1.6-0.5,2.5l1.2,0.1
	c0,0.5,0.1,0.9,0.3,1.4l-1.1,0.5c0.1,0.4,0.3,0.8,0.6,1.1s0.5,0.7,0.8,1l0.9-0.8c0.3,0.3,0.7,0.6,1.2,0.8l-0.4,1.1
	c0.8,0.3,1.6,0.5,2.5,0.5l0.1-1.2c0.5,0,0.9-0.1,1.4-0.3l0.5,1.1c0.4-0.1,0.8-0.3,1.1-0.6s0.7-0.5,1-0.8l-0.8-0.9
	c0.3-0.3,0.6-0.7,0.8-1.2l1.1,0.4c0.3-0.8,0.5-1.6,0.5-2.5l-1.2-0.1c0-0.5-0.1-0.9-0.3-1.4l1.1-0.5c-0.1-0.4-0.3-0.8-0.6-1.1
	c-0.2-0.4-0.5-0.7-0.8-1l-0.9,0.8C133.7,62.1,133.3,61.8,132.9,61.6z M132.6,68.2c-1.3,0.9-3.2,0.5-4-0.8s-0.5-3.2,0.8-4
	c1.3-0.9,3.2-0.5,4,0.8C134.3,65.5,133.9,67.3,132.6,68.2z"/>
<g>
	<polygon class="st32" points="463.2,155 466.3,156 459,159.1 446.7,156 	"/>
	<g>
		
			<linearGradient id="SVGID_25_" gradientUnits="userSpaceOnUse" x1="446.6623" y1="99.2891" x2="457.0917" y2="99.2891" gradientTransform="matrix(1 0 0 -1 0 252)">
			<stop  offset="0" style="stop-color:#B0CEEA"/>
			<stop  offset="1" style="stop-color:#D4E3F9"/>
		</linearGradient>
		<polygon class="st84" points="457.1,157.1 446.7,156.2 446.7,148.4 457.1,149 		"/>
		
			<linearGradient id="SVGID_26_" gradientUnits="userSpaceOnUse" x1="457.0917" y1="99.8391" x2="463.1755" y2="99.8391" gradientTransform="matrix(1 0 0 -1 0 252)">
			<stop  offset="0" style="stop-color:#E1EAFF"/>
			<stop  offset="1" style="stop-color:#B0CEEA"/>
		</linearGradient>
		<polygon class="st85" points="463.2,155.1 457.1,157.1 457.1,149 463.2,147.3 		"/>
		<polygon class="st3" points="463.2,147.3 453.6,146.6 446.7,148.4 457.1,149 		"/>
	</g>
</g>
<g>
	<g>
		<g class="st86">
			<path d="M463.6,126.6c0-0.4,0-0.6,0.1-1c-2.4-0.4-5.8-0.7-7.5-0.7c-1.7,0-4.8,0.4-7.4,0.7c0.1,0.4,0.1,0.6,0.1,1
				c0,2-1.7,3.6-3.8,3.7c0.3,3.2,1.2,7.6,2.3,10c1.7,3.9,7.9,7.4,8.7,8c0.8-0.6,7-4.1,8.7-8c1.1-2.3,2-6.8,2.3-10.1
				C465,130.1,463.6,128.5,463.6,126.6z"/>
			<path d="M456,126.7c-1.2,0-3.2,0.1-5.2,0.4c-0.3,2-1.6,3.7-3.6,4.4c0.1,1.5,0.5,3,0.8,4.4c0.4,1.5,0.7,2.7,1.1,3.6
				c1.2,2.6,5,5.2,6.9,6.4l0,0v-10L456,126.7C456.2,126.7,456.2,126.7,456,126.7z"/>
			<path d="M461.6,127.2c-2.2-0.2-4.3-0.5-5.5-0.5v9.2v10c1.9-1.2,5.6-3.8,6.9-6.4c0.4-0.9,0.8-2.1,1.1-3.6c0.4-1.4,0.7-3,0.8-4.4
				C463.2,130.7,461.8,129.1,461.6,127.2z"/>
		</g>
		<g>
			<g>
				<path class="st47" d="M462.2,125.4c0-0.4,0-0.6,0.1-1c-2.4-0.4-5.8-0.7-7.5-0.7c-1.7,0-4.8,0.4-7.4,0.7c0.1,0.4,0.1,0.6,0.1,1
					c0,2-1.7,3.6-3.8,3.7c0.3,3.2,1.2,7.6,2.3,10c1.7,3.9,7.9,7.4,8.7,8c0.8-0.6,7-4.1,8.7-8c1.1-2.3,2-6.8,2.3-10.1
					C463.7,128.8,462.2,127.2,462.2,125.4z"/>
				<g>
					<path class="st54" d="M454.7,125.5c-1.2,0-3.2,0.1-5.2,0.4c-0.3,2-1.6,3.7-3.6,4.4c0.1,1.5,0.5,3,0.8,4.4
						c0.4,1.5,0.7,2.7,1.1,3.6c1.2,2.6,5,5.2,6.9,6.4l0,0v-10L454.7,125.5C454.8,125.5,454.8,125.5,454.7,125.5z"/>
					<path class="st52" d="M460.2,126c-2.2-0.2-4.3-0.5-5.5-0.5v9.2v10c1.9-1.2,5.6-3.8,6.9-6.4c0.4-0.9,0.8-2.1,1.1-3.6
						c0.4-1.4,0.7-3,0.8-4.4C461.8,129.5,460.5,127.8,460.2,126z"/>
				</g>
			</g>
		</g>
	</g>
	<path class="st8" d="M454.7,137.2c-0.3,0-0.4-0.1-0.5-0.2l-2.3-2.7c-0.3-0.2-0.1-0.7,0.1-1c0.3-0.2,0.8-0.1,1.1,0.1l1.7,2.1
		l3.5-4.1c0.3-0.2,0.7-0.4,1.1-0.1c0.3,0.2,0.4,0.6,0.1,1l-4,4.8C455.2,137.2,455,137.2,454.7,137.2z"/>
</g>
<g>
	
		<linearGradient id="SVGID_27_" gradientUnits="userSpaceOnUse" x1="271.0856" y1="46.8909" x2="294.6671" y2="22.4717" gradientTransform="matrix(-1 0 0 -1 513.0873 252)">
		<stop  offset="0" style="stop-color:#FFFFFF;stop-opacity:0"/>
		<stop  offset="1" style="stop-color:#E6E6E6"/>
	</linearGradient>
	<ellipse class="st87" cx="230.2" cy="217.3" rx="24.1" ry="4"/>
	<g>
		<g>
			<rect x="252.9" y="172.7" class="st88" width="1.1" height="40.8"/>
		</g>
		<rect x="251.7" y="157.3" class="st88" width="3.3" height="2"/>
		<path class="st88" d="M249.2,150.2l-0.6-5.1v-1.7l3.3-0.3v0.6c0,0,2.3-0.2,3.3,0.8s1.7,3.4,1.7,3.4L249.2,150.2z"/>
		<path class="st88" d="M253.3,155.9h7.3l0.9,0.3h3.7c1.7-0.9,1.7-4.2,1.7-6.2c0-2-2-3.3-2-3.3h-1.1h-2.3l-0.8,0.6h-6.5L253.3,155.9
			z"/>
		<path class="st89" d="M252.8,157.6h4c0,0,0-0.6,0-3.7c0-3.3-1.1-7.5-1.9-7.8c-0.8-0.3-3-0.3-3-0.3L252.8,157.6z"/>
		<path class="st90" d="M251.7,146c0.8,0,2,0.2,2.8,0.3c0.8,0.2,1.4,3.3,1.6,4c0.6,3,0.5,4.2,0.6,7.3c0.2-1.2,0.2-3.4,0.2-3.7
			c0.2-3-0.9-7.3-1.9-7.8C254.5,145.8,252.6,145.8,251.7,146z"/>
		<polygon class="st89" points="245,157.6 252.8,157.6 252,145.8 244.2,148 		"/>
		<polygon class="st91" points="245.6,156.8 245,148.4 251.4,146.7 252,156.8 		"/>
		<polygon class="st92" points="247,147.8 246.3,144.6 248.9,143.8 249.5,147.2 		"/>
		<path class="st89" d="M249.4,147.2l-0.5-3.4l0,0c0.9,0.3,1.4,1.1,1.4,2v1.1L249.4,147.2z"/>
		<polygon class="st93" points="246.9,144.9 247.4,147.4 249.1,146.9 248.6,144.4 		"/>
		<rect x="252.3" y="159.5" class="st94" width="2" height="18.8"/>
		<rect x="252" y="162.1" class="st89" width="2.6" height="10"/>
		<rect x="249.8" y="172.1" class="st88" width="7.3" height="1.1"/>
		<rect x="251.4" y="160.1" class="st88" width="4.4" height="2"/>
		<path class="st90" d="M262.7,155.1c0.3-3.1,0.8-6.5-1.2-8.4C264,148.3,263.7,152.3,262.7,155.1z"/>
		<g>
			<polygon class="st88" points="265.5,214.3 256.2,172.5 255.1,172.7 264.5,214.3 			"/>
		</g>
		<g>
			<polygon class="st88" points="243.9,214.3 251.4,172.7 250.3,172.5 242.8,214.3 			"/>
		</g>
	</g>
</g>
<g>
	<path class="st95" d="M216.9,153.7c0,0-3.7-4.4-3.4-7.2c0.5-2.8,7.9-10.3,7.9-10.3L216.9,153.7z"/>
	<path class="st49" d="M227.6,212.6c0.9,1.9,3.3,2.8,4.7,3.1c1.4,0.3,1.4,1.4,1.4,1.4h-4.8c0,0-3.7,0-3.9,0c-0.6-0.2-0.9-4-0.9-4
		S226.8,210.6,227.6,212.6z"/>
	<path class="st49" d="M217,212.6c0.9,1.9,3.3,2.8,4.7,3.1c1.4,0.3,1.4,1.4,1.4,1.4h-4.8c0,0-3.7,0-3.9,0c-0.6-0.2-0.9-4-0.9-4
		S216.1,210.6,217,212.6z"/>
	<path class="st48" d="M215.9,164.7c0,0,1.7,18.7-0.5,25.8c-2.2,7.2-2.2,22.7-2.2,22.7l5,0.2c0,0,0.6-6.1,5.3-20.4
		c4.7-14.2,5.9-22.2,5.9-22.2L215.9,164.7z"/>
	<path class="st50" d="M217.3,165.7c0,0,5,18,4,25.5c-0.8,7.3,2.2,22.2,2.2,22.2l5-0.2c0,0-0.6-6.2,1.4-21.1
		c2-14.8,1.9-26.9,1.9-26.9L217.3,165.7z"/>
	<path class="st46" d="M222.8,132.1c0-0.2-0.2-1.2-0.2-1.2l1.2,0.6l3.3,1.6c0,0,0.2,0.9,0.3,1.9v0.2c0.2,1.2,0.5,2.5,0.5,2.8
		l-3.4,0.8l-2.3-1.7C222.2,136.9,223.1,135,222.8,132.1z"/>
	<path class="st95" d="M229.3,137.5l-7.5-1.7c0,0,0.3-0.9,0.8-1.1c0.5-0.2,5.1,1.2,5.1,1.2C228.7,136.4,229.2,137.7,229.3,137.5z"/>
	<path class="st51" d="M221.5,136c1.1-0.3,7.5,1.7,7.5,1.7s1.1,2.6,1.7,5.9c0.3,1.6,0.6,3.3,0.6,5c0,3.4,0.9,10.1,1.2,14.6
		c0.2,2.3,0,4-0.3,4.4c-3.3,3.1-16.2,2.8-17-0.8C214.5,163.2,216.1,137.7,221.5,136z"/>
	<path class="st95" d="M227,142.8l3.7,0.6c0.3,1.6,0.6,3.3,0.6,5c0,3.4,0.9,10.1,1.2,14.6C223.4,158,227.1,142.8,227,142.8z"/>
	<path class="st46" d="M229.3,156.3c-1.1,0.8-0.3,2.8-0.5,3.1c-0.2,0.3,0.6,0.9,1.1,1.1c0.5,0.2,1.6-0.6,1.7-1.1
		c0.2-0.5-0.3-1.1-0.8-1.6c-0.6-0.5-0.3-1.1-0.3-1.1S230.2,155.7,229.3,156.3z"/>
	<path class="st51" d="M226.4,147.8c0.6-1.6,4.8,1.9,5.1,2.2c0.6,0.8-2.8,6.1-2.8,6.1c0.2,1.4,1.4,2,2.3,2s5.9-5.4,6.4-7
		s-1.4-4.8-4.4-9.2c-3-4.4-6.7-5-6.7-5S225.4,150.3,226.4,147.8z"/>
	<path class="st53" d="M223.9,131.6l3.3,1.6c0,0,0.2,0.9,0.3,1.9v0.2c-1.1-0.5-3.6-1.6-4.4-3C222.8,131.6,223.2,131.4,223.9,131.6z"
		/>
	<path class="st46" d="M228.4,124.8c-0.6-1.1-1.9-2.2-5.4-0.9c-3.6,1.4-2.2,3.6-1.1,7.2c1.1,3.7,6.8,1.9,6.8,1.9
		C230.1,132.4,229,126.2,228.4,124.8z"/>
	<path class="st48" d="M217.5,124.6c-0.6,1.2,3.3,8.4,5.9,8.2s1.4-1.7,1.2-3c-0.2-1.2,0.6-1.1,1.6-0.9c0.9,0.2,1.2-4.2,1.2-4.2
		C230.4,120.1,219.7,120.7,217.5,124.6z"/>
</g>
<linearGradient id="SVGID_28_" gradientUnits="userSpaceOnUse" x1="266.9445" y1="144.9165" x2="353.7328" y2="144.9165">
	<stop  offset="0" style="stop-color:#B0CE9C;stop-opacity:0.6"/>
	<stop  offset="1" style="stop-color:#D0E0F8;stop-opacity:0"/>
</linearGradient>
<path class="st96" d="M264.9,146.7l90.9-45.3l-0.9,87l-89.7-32.2C265.2,156.2,269.5,151.3,264.9,146.7z"/>
</svg>
