<?xml version="1.0" encoding="utf-8"?>
<!-- Generator: Adobe Illustrator 22.1.0, SVG Export Plug-In . SVG Version: 6.00 Build 0)  -->
<svg version="1.1" id="Layer_1" xmlns="http://www.w3.org/2000/svg" xmlns:xlink="http://www.w3.org/1999/xlink" x="0px" y="0px"
	 viewBox="0 0 5.2 10" style="enable-background:new 0 0 5.2 10;" xml:space="preserve">
<style type="text/css">
	.st0{fill:#FFFFFF;}
</style>
<title>Group Copy</title>
<desc>Created with Sketch.</desc>
<g id="facebook-logo-_x28_1_x29_">
	<path id="Path" class="st0" d="M5,0L3.8,0C2.4,0,1.5,1,1.5,2.5v1.1H0.2C0.1,3.6,0,3.7,0,3.8v1.7c0,0.1,0.1,0.2,0.2,0.2h1.3v4.2
		C1.5,10,1.6,10,1.7,10h1.6c0.1,0,0.2-0.1,0.2-0.2V5.7H5c0.1,0,0.2-0.1,0.2-0.2l0-1.7c0-0.1,0-0.1-0.1-0.1c0,0-0.1-0.1-0.1-0.1H3.5
		v-1c0-0.5,0.1-0.7,0.7-0.7l0.8,0c0.1,0,0.2-0.1,0.2-0.2V0.2C5.2,0.1,5.2,0,5,0z"/>
</g>
</svg>
