<?xml version="1.0" encoding="utf-8"?>
<!-- Generator: Adobe Illustrator 22.1.0, SVG Export Plug-In . SVG Version: 6.00 Build 0)  -->
<svg version="1.1" id="Layer_1" xmlns="http://www.w3.org/2000/svg" xmlns:xlink="http://www.w3.org/1999/xlink" x="0px" y="0px"
	 viewBox="0 0 10 7.8" style="enable-background:new 0 0 10 7.8;" xml:space="preserve">
<style type="text/css">
	.st0{fill:#FFFFFF;}
</style>
<title>Group Copy</title>
<desc>Created with Sketch.</desc>
<g id="twitter" transform="translate(0.000000, 31.000000)">
	<path id="Path_3_" class="st0" d="M10-30.1c-0.4,0.2-0.8,0.3-1.2,0.3c0.4-0.2,0.8-0.6,0.9-1.1c-0.4,0.2-0.8,0.4-1.3,0.5
		C8-30.8,7.5-31,6.9-31c-1.1,0-2.1,0.9-2.1,2c0,0.2,0,0.3,0,0.5c-1.7-0.1-3.2-0.9-4.2-2.1c-0.2,0.3-0.3,0.6-0.3,1
		c0,0.7,0.4,1.3,0.9,1.6c-0.2,0-0.5-0.1-0.8-0.3l0,0c0,1,0.7,1.8,1.6,1.9c-0.2,0-0.4,0.1-0.5,0.1s-0.3,0-0.4,0
		c0.3,0.8,1,1.4,1.9,1.4C2.3-24.4,1.5-24,0.5-24c-0.2,0-0.3-0.1-0.5-0.1c0.9,0.6,2,0.9,3.2,0.9c3.8,0,5.9-3,5.9-5.6
		C9-28.9,9-29,9-29.1C9.4-29.4,9.8-29.7,10-30.1z"/>
</g>
</svg>
