<?xml version="1.0" encoding="utf-8"?>
<!-- Generator: Adobe Illustrator 22.1.0, SVG Export Plug-In . SVG Version: 6.00 Build 0)  -->
<svg version="1.1" id="Layer_1" xmlns="http://www.w3.org/2000/svg" xmlns:xlink="http://www.w3.org/1999/xlink" x="0px" y="0px"
	 viewBox="0 0 10 9.3" style="enable-background:new 0 0 10 9.3;" xml:space="preserve">
<style type="text/css">
	.st0{fill:#FFFFFF;}
</style>
<title>Group Copy</title>
<desc>Created with Sketch.</desc>
<g id="linkedin-logo-_x28_1_x29_" transform="translate(0.000000, 58.000000)">
	<path id="LinkedIn" class="st0" d="M10-52.3v3.5H7.9v-3.3c0-0.8-0.3-1.4-1.1-1.4c-0.6,0-0.9,0.4-1.1,0.8c-0.1,0.1-0.1,0.3-0.1,0.5
		v3.5H3.5c0,0,0-5.6,0-6.2h2.2v0.9l0,0l0,0l0,0c0.3-0.4,0.8-1,1.9-1C9-55.1,10-54.2,10-52.3z M1.2-58C0.5-58,0-57.5,0-56.9
		c0,0.6,0.5,1.1,1.2,1.1l0,0c0.8,0,1.2-0.5,1.2-1.1C2.4-57.5,2-58,1.2-58z M0.1-48.8h2.2V-55H0.1V-48.8z"/>
</g>
</svg>
