<?xml version="1.0" encoding="utf-8"?>
<!-- Generator: Adobe Illustrator 22.1.0, SVG Export Plug-In . SVG Version: 6.00 Build 0)  -->
<svg version="1.1" id="Layer_1" xmlns="http://www.w3.org/2000/svg" xmlns:xlink="http://www.w3.org/1999/xlink" x="0px" y="0px"
	 viewBox="0 0 11.4 7.9" style="enable-background:new 0 0 11.4 7.9;" xml:space="preserve">
<style type="text/css">
	.st0{fill:#FFFFFF;}
</style>
<title>Group Copy</title>
<desc>Created with Sketch.</desc>
<g id="youtube" transform="translate(1.000000, 114.000000)">
	<path id="XMLID_823_" class="st0" d="M9.9-113.3c-0.4-0.5-1.2-0.7-2.6-0.7H2.1c-1.5,0-2.2,0.2-2.7,0.7C-1-112.7-1-112-1-111v1.9
		c0,2,0.5,3,3.1,3h5.2c1.3,0,1.9-0.2,2.4-0.6c0.5-0.4,0.7-1.1,0.7-2.4v-1.9C10.4-112,10.3-112.8,9.9-113.3z M6.3-109.7l-2.4,1.2
		c-0.1,0-0.1,0-0.2,0s-0.1,0-0.2-0.1c0,0-0.1-0.1-0.1-0.2v-2.4c0-0.1,0.1-0.2,0.2-0.3s0.2-0.1,0.4,0l2.4,1.2
		c0.1,0.1,0.2,0.2,0.2,0.3C6.5-109.9,6.4-109.8,6.3-109.7z"/>
</g>
</svg>
