<?xml version="1.0" encoding="utf-8"?>
<!-- Generator: Adobe Illustrator 24.3.0, SVG Export Plug-In . SVG Version: 6.00 Build 0)  -->
<svg version="1.1" id="Layer_1" xmlns="http://www.w3.org/2000/svg" xmlns:xlink="http://www.w3.org/1999/xlink" x="0px" y="0px"
	 viewBox="0 0 463.7 97" style="enable-background:new 0 0 463.7 97;" xml:space="preserve">
<style type="text/css">
	.st0{fill:#FFFFFF;}
	.st1{fill-rule:evenodd;clip-rule:evenodd;fill:#FECE1C;}
	.st2{fill-rule:evenodd;clip-rule:evenodd;fill:#0077B6;}
	.st3{fill-rule:evenodd;clip-rule:evenodd;fill:#13964C;}
	.st4{fill-rule:evenodd;clip-rule:evenodd;fill:#C92233;}
	.st5{fill-rule:evenodd;clip-rule:evenodd;fill:#FFFFFF;}
</style>
<path class="st0" d="M24.1,86.9h6.4l-12-34.1H12L0,86.9h6.4l2.9-8.7h12L24.1,86.9L24.1,86.9z M15.3,58.7c0,0,0.7,3.4,1.3,5.3l3,9.1
	h-8.9l3-9.1C14.4,62.1,15.2,58.7,15.3,58.7L15.3,58.7L15.3,58.7z"/>
<path class="st0" d="M32.1,74.7c0,7.1,5.2,12.8,13.3,12.8c6.6,0,10.1-4,10.1-4l-2.4-4.3c0,0-3.1,3.1-7.2,3.1c-4.7,0-7.6-3.6-7.6-7.7
	c0-4.2,2.9-7.6,7.4-7.6c3.8,0,6.4,2.6,6.4,2.6l2.7-4.2c0,0-3-3.6-9.4-3.6C37.3,61.8,32.1,67.7,32.1,74.7L32.1,74.7z"/>
<path class="st0" d="M58.3,74.7c0,7.1,5.2,12.8,13.3,12.8c6.6,0,10.1-4,10.1-4l-2.4-4.3c0,0-3.1,3.1-7.2,3.1c-4.7,0-7.6-3.6-7.6-7.7
	c0-4.2,2.9-7.6,7.4-7.6c3.8,0,6.4,2.6,6.4,2.6l2.7-4.2c0,0-3-3.6-9.4-3.6C63.5,61.8,58.3,67.7,58.3,74.7L58.3,74.7z"/>
<path class="st0" d="M84.5,74.7c0,7,5,12.8,13.2,12.8c6.1,0,9.8-3.5,9.8-3.5l-2.4-4.4c0,0-3.1,2.7-7.1,2.7c-3.6,0-7-2.2-7.3-6.5
	h16.9c0,0,0.1-1.6,0.1-2.4c0-6.5-3.8-11.6-10.8-11.6C89.6,61.8,84.5,67.1,84.5,74.7L84.5,74.7z M90.9,71.6c0.6-3.2,2.7-5.1,5.9-5.1
	c2.7,0,4.8,1.8,4.8,5.1H90.9L90.9,71.6z"/>
<path class="st0" d="M110.7,83.9c0,0,3.4,3.6,9.5,3.6c5.8,0,9.4-3.3,9.4-7.3c0-7.9-11.9-7.4-11.9-10.9c0-1.5,1.5-2.2,3.1-2.2
	c3.7,0,6,2.1,6,2.1l2.3-4.5c0,0-2.7-2.8-8.2-2.8c-5.3,0-9.4,2.6-9.4,7.2c0,7.9,11.9,7.4,11.9,11c0,1.4-1.5,2.2-3.2,2.2
	c-4,0-6.7-2.7-6.7-2.7L110.7,83.9L110.7,83.9z"/>
<path class="st0" d="M132.4,83.9c0,0,3.4,3.6,9.5,3.6c5.8,0,9.4-3.3,9.4-7.3c0-7.9-11.9-7.4-11.9-10.9c0-1.5,1.5-2.2,3.1-2.2
	c3.7,0,6,2.1,6,2.1l2.3-4.5c0,0-2.7-2.8-8.2-2.8c-5.3,0-9.4,2.6-9.4,7.2c0,7.9,11.9,7.4,11.9,11c0,1.4-1.5,2.2-3.2,2.2
	c-4,0-6.7-2.7-6.7-2.7L132.4,83.9L132.4,83.9z"/>
<path class="st0" d="M167.8,86.9h6.2l1.4-19.1c0.1-2.3,0-5.3,0-5.3h0.1c0,0,1.1,3.4,1.9,5.3l5.5,13.2h5.4l5.5-13.2
	c0.8-2,1.8-5.3,1.8-5.3h0.1c0,0-0.1,3,0,5.3l1.4,19.1h6.1l-2.7-34.1H194l-6.7,16.8c-0.8,2-1.7,5-1.7,5h-0.1c0,0-1-3-1.7-5l-6.7-16.8
	h-6.6L167.8,86.9L167.8,86.9z"/>
<path class="st0" d="M207.9,79.8c0,4.9,3.9,7.6,8.3,7.6c5.6,0,7.5-4.3,7.4-4.3h0.1c0,0-0.1,0.8-0.1,1.7v2h5.6V71.6
	c0-6.2-3.7-9.7-10.2-9.7c-5.8,0-9.6,3-9.6,3l2.3,4.4c0,0,3.2-2.4,6.7-2.4c2.7,0,4.7,1.1,4.7,4.3v0.3h-0.8
	C218.4,71.5,207.9,72.1,207.9,79.8L207.9,79.8z M214.1,79.6c0-3.4,5-3.8,8.2-3.8h1.1v0.6c0,3-2.3,6.4-5.5,6.4
	C215.3,82.7,214.1,81.2,214.1,79.6L214.1,79.6z"/>
<path class="st0" d="M235.6,86.9h6.1V75.7c0-1.2,0.1-2.3,0.4-3.3c0.9-2.9,3.3-5,6.6-5c3.1,0,3.9,2,3.9,5v14.5h6V71.2
	c0-6.5-3.1-9.3-8.5-9.3c-4.9,0-7.6,3-8.7,5.1h-0.1c0,0,0.1-0.8,0.1-1.7v-2.8h-5.9L235.6,86.9L235.6,86.9z"/>
<path class="st0" d="M263,79.8c0,4.9,3.9,7.6,8.3,7.6c5.6,0,7.5-4.3,7.4-4.3h0.1c0,0-0.1,0.8-0.1,1.7v2h5.6V71.6
	c0-6.2-3.7-9.7-10.2-9.7c-5.8,0-9.6,3-9.6,3l2.3,4.4c0,0,3.2-2.4,6.7-2.4c2.7,0,4.7,1.1,4.7,4.3v0.3h-0.8
	C273.5,71.5,263,72.1,263,79.8L263,79.8z M269.1,79.6c0-3.4,5-3.8,8.2-3.8h1.1v0.6c0,3-2.3,6.4-5.5,6.4
	C270.3,82.7,269.1,81.2,269.1,79.6L269.1,79.6z"/>
<path class="st0" d="M293.2,90.2l-1.8,4.7c2.4,1.2,5.6,2.1,8.7,2.1c6.4,0,12.9-3.2,12.9-11.6v-23h-5.7v1.9c0,0.4,0,0.7,0,0.7h-0.1
	c0,0-1.9-3.1-7.2-3.1c-7.1,0-10.8,5.5-10.8,12.2s4,12.4,11,12.4c3.3,0,5.4-1.2,6.8-3.3h0.1c0,0-0.1,0.7-0.1,1.3v1.4
	c0,4.4-3.2,6-6.9,6C296.3,91.8,293.2,90.2,293.2,90.2L293.2,90.2z M301.3,81.3c-3.9,0-6.1-3.2-6.1-7.4c0-4.1,2.1-6.8,5.8-6.8
	c3.3,0,6,1.5,6,7.1C307,79.6,304.3,81.3,301.3,81.3L301.3,81.3z"/>
<path class="st0" d="M318,74.7c0,7,5,12.8,13.2,12.8c6.1,0,9.8-3.5,9.8-3.5l-2.4-4.4c0,0-3.1,2.7-7.1,2.7c-3.6,0-7-2.2-7.3-6.5h16.9
	c0,0,0.1-1.6,0.1-2.4c0-6.5-3.8-11.6-10.8-11.6C323.1,61.8,318,67.1,318,74.7L318,74.7z M324.4,71.6c0.6-3.2,2.7-5.1,5.9-5.1
	c2.7,0,4.8,1.8,4.8,5.1H324.4L324.4,71.6z"/>
<path class="st0" d="M346.3,86.9h6.1v-9.7c0-1.4,0.1-2.8,0.5-4c1.2-3.6,4.1-5.1,6.7-5.1c0.8,0,1.4,0.1,1.4,0.1v-6
	c0,0-0.5-0.1-1.1-0.1c-3.7,0-6.7,2.8-7.8,6.3H352c0,0,0.1-0.8,0.1-1.7v-4.2h-5.9L346.3,86.9L346.3,86.9z"/>
<path class="st0" d="M378,86.9h4.8V74.4h7.6c6.2,0,10.7-4.3,10.7-10.8c0-6.4-4.5-10.6-10.7-10.6H378V86.9L378,86.9z M382.8,70.2
	V57.1h6.9c4,0,6.5,2.4,6.5,6.5s-2.5,6.6-6.6,6.6H382.8L382.8,70.2z"/>
<path class="st0" d="M405.9,80.3c0,6.1,3.9,6.8,6.5,6.8c0.8,0,1.5-0.1,1.5-0.1v-4.1c0,0-0.4,0-0.8,0c-1.4,0-2.6-0.5-2.6-3.5V53h-4.7
	v27.3H405.9z"/>
<path class="st0" d="M418.6,78.2c0,6.4,2.8,9.3,8.3,9.3c4.8,0,7.9-3.2,8.9-5.6h0.1c0,0-0.1,0.8-0.1,1.8v3.2h4.5V62.6h-4.7V74
	c0,4.8-2.9,9.2-7.9,9.2c-3.9,0-4.6-2.7-4.6-6V62.6h-4.7v15.6H418.6z"/>
<path class="st0" d="M445.7,83.9c0,0,3.3,3.6,9.2,3.6c5.3,0,8.8-3,8.8-7.1c0-8-12.5-7-12.5-11.4c0-2.1,2-3,4-3c3.8,0,6,2.2,6,2.2
	l1.9-3.5c0,0-2.5-2.7-7.8-2.7c-4.8,0-8.8,2.5-8.8,6.9c0,7.9,12.5,7,12.5,11.5c0,2-2,3-4,3c-4.2,0-7-2.8-7-2.8L445.7,83.9L445.7,83.9
	z"/>
<path class="st1" d="M228.2,1.2c13.7,9.5,8,31.5-6.6,33.9l0,0C240.3,35.1,246.4,9.7,228.2,1.2L228.2,1.2z"/>
<path class="st2" d="M213.6,1c16.3-2.4,23,17.7,15.8,27C241.3,16.1,231.8-4.8,213.6,1L213.6,1z"/>
<path class="st3" d="M204,10.8c8-11.9,24.7-4.5,26.4,7.5C232.3,3.5,212.7-4.8,204,10.8L204,10.8z"/>
<path class="st4" d="M203.6,19.7c1.9-12.3,18-13.6,23.8-5C222.7,2.5,203.9,4,203.6,19.7L203.6,19.7z"/>
<path class="st5" d="M2,35.1h4.1l1-12.7c0-0.4,0-0.8,0-1.2c0-0.4,0-0.8,0-1.2c0-0.4,0-0.6,0-0.9c0-0.2,0-0.3,0-0.3h0.1
	c0,0,0,0.1,0.1,0.4c0.1,0.2,0.2,0.5,0.3,0.9c0.1,0.4,0.3,0.8,0.4,1.2c0.1,0.4,0.3,0.8,0.4,1.1l3.7,8.8h3.6l3.7-8.8
	c0.1-0.3,0.3-0.7,0.4-1.1s0.3-0.8,0.4-1.1c0.1-0.4,0.2-0.7,0.3-0.9c0.1-0.2,0.1-0.4,0.1-0.4h0.1c0,0,0,0.1,0,0.3c0,0.2,0,0.5,0,0.9
	s0,0.7,0,1.1s0,0.8,0,1.2l1,12.7h4.1L24,12.3h-4.4L15,23.6c-0.1,0.3-0.3,0.7-0.4,1.1c-0.1,0.4-0.3,0.7-0.4,1.1
	c-0.1,0.3-0.2,0.6-0.3,0.8c-0.1,0.2-0.1,0.3-0.1,0.3h-0.1c0,0,0-0.1-0.1-0.3c-0.1-0.2-0.2-0.5-0.3-0.8s-0.2-0.7-0.4-1.1
	c-0.1-0.4-0.3-0.7-0.4-1.1L8.2,12.3H3.8L2,35.1L2,35.1z M28.8,30.4c0,0.8,0.2,1.5,0.5,2.2c0.3,0.6,0.7,1.2,1.2,1.6
	c0.5,0.4,1.1,0.8,1.8,1c0.7,0.2,1.4,0.3,2.1,0.3c0.7,0,1.4-0.1,2-0.3s1-0.4,1.4-0.7s0.7-0.6,0.9-0.9c0.2-0.3,0.4-0.5,0.5-0.7
	s0.2-0.3,0.1-0.3h0.1c0,0,0,0.1,0,0.3s0,0.5,0,0.8V35h3.8V24.9c0-1.4-0.3-2.6-0.8-3.5c-0.5-1-1.3-1.7-2.3-2.2s-2.2-0.8-3.7-0.8
	c-0.8,0-1.5,0.1-2.2,0.2s-1.3,0.3-1.8,0.5s-1,0.4-1.3,0.6c-0.4,0.2-0.6,0.4-0.8,0.5c-0.2,0.1-0.3,0.2-0.3,0.2l1.5,2.9
	c0,0,0.1-0.1,0.4-0.2c0.2-0.2,0.6-0.3,1-0.5s0.9-0.4,1.4-0.5c0.5-0.2,1.1-0.2,1.7-0.2c0.6,0,1.1,0.1,1.6,0.3
	c0.5,0.2,0.8,0.5,1.1,0.9s0.4,1,0.4,1.7V25h-0.5c-0.5,0-1,0-1.6,0s-1.3,0.1-2.1,0.2s-1.4,0.3-2.1,0.5c-0.7,0.2-1.3,0.6-1.9,1
	s-1,0.9-1.4,1.5C29,28.8,28.8,29.5,28.8,30.4L28.8,30.4z M32.9,30.2c0-0.5,0.1-0.8,0.4-1.1c0.2-0.3,0.6-0.6,1-0.7
	c0.4-0.2,0.8-0.3,1.3-0.4s1-0.2,1.4-0.2c0.5,0,0.9-0.1,1.4,0h0.7V28c0,0.5-0.1,1-0.3,1.5s-0.4,1-0.8,1.4c-0.3,0.4-0.7,0.8-1.2,1
	c-0.4,0.3-0.9,0.4-1.5,0.4s-1-0.1-1.4-0.3s-0.6-0.5-0.8-0.8C33,30.9,32.9,30.5,32.9,30.2L32.9,30.2z M47.3,35.1h4.1v-7.5
	c0-0.4,0-0.8,0.1-1.1c0-0.4,0.1-0.7,0.2-1.1c0.2-0.7,0.5-1.2,0.9-1.7s0.9-0.9,1.5-1.2c0.6-0.3,1.2-0.4,2-0.4c0.7,0,1.2,0.1,1.6,0.4
	c0.4,0.3,0.6,0.7,0.8,1.2c0.1,0.5,0.2,1.1,0.2,1.7v9.7h4V24.6c0-1.4-0.2-2.6-0.7-3.5c-0.4-0.9-1.1-1.6-1.9-2
	c-0.8-0.4-1.9-0.7-3.1-0.7c-0.8,0-1.6,0.1-2.2,0.3c-0.6,0.2-1.2,0.5-1.7,0.8s-0.9,0.7-1.2,1.1s-0.6,0.8-0.7,1.1h-0.1
	c0,0,0-0.1,0-0.3c0-0.2,0-0.5,0-0.8v-1.9h-3.9v16.4H47.3z M65.6,30.4c0,0.8,0.2,1.5,0.5,2.2c0.3,0.6,0.7,1.2,1.2,1.6
	c0.5,0.4,1.1,0.8,1.8,1c0.7,0.2,1.4,0.3,2.1,0.3s1.4-0.1,2-0.3s1-0.4,1.4-0.7s0.7-0.6,0.9-0.9c0.2-0.3,0.4-0.5,0.5-0.7
	s0.2-0.3,0.1-0.3h0.1c0,0,0,0.1,0,0.3s0,0.5,0,0.8V35H80V24.9c0-1.4-0.3-2.6-0.8-3.5c-0.5-1-1.3-1.7-2.3-2.2s-2.2-0.8-3.7-0.8
	c-0.8,0-1.5,0.1-2.2,0.2s-1.3,0.3-1.8,0.5s-1,0.4-1.3,0.6c-0.4,0.2-0.6,0.4-0.8,0.5c-0.2,0.1-0.3,0.2-0.3,0.2l1.5,2.9
	c0,0,0.1-0.1,0.4-0.2c0.2-0.2,0.6-0.3,1-0.5s0.9-0.4,1.4-0.5c0.5-0.2,1.1-0.2,1.7-0.2s1.1,0.1,1.6,0.3c0.5,0.2,0.8,0.5,1.1,0.9
	c0.3,0.4,0.4,1,0.4,1.7V25h-0.5c-0.5,0-1,0-1.6,0s-1.3,0.1-2.1,0.2c-0.7,0.1-1.4,0.3-2.1,0.5s-1.3,0.6-1.9,1s-1,0.9-1.4,1.5
	C65.8,28.8,65.6,29.5,65.6,30.4L65.6,30.4z M69.7,30.2c0-0.5,0.1-0.8,0.4-1.1c0.2-0.3,0.6-0.6,1-0.7c0.4-0.2,0.8-0.3,1.3-0.4
	s1-0.2,1.4-0.2c0.5,0,0.9-0.1,1.4,0h0.7V28c0,0.5-0.1,1-0.3,1.5c-0.2,0.5-0.4,1-0.8,1.4c-0.3,0.4-0.7,0.8-1.2,1
	c-0.4,0.3-0.9,0.4-1.5,0.4s-1-0.1-1.4-0.3s-0.6-0.5-0.8-0.8C69.8,30.9,69.7,30.5,69.7,30.2L69.7,30.2z M85.8,37.3l-1.2,3.1
	c0.5,0.3,1.1,0.5,1.7,0.7s1.3,0.4,2,0.5s1.4,0.2,2.1,0.2c0.9,0,1.7-0.1,2.5-0.3s1.6-0.5,2.3-0.8c0.7-0.4,1.4-0.9,1.9-1.5
	c0.6-0.6,1-1.3,1.3-2.2s0.5-1.8,0.5-3V18.7h-3.8V20c0,0.1,0,0.2,0,0.3c0,0.1,0,0.1,0,0.1H95c0,0-0.1-0.1-0.2-0.2s-0.3-0.3-0.5-0.5
	s-0.5-0.4-0.9-0.6s-0.8-0.4-1.4-0.5c-0.5-0.1-1.2-0.2-1.9-0.2c-1.2,0-2.2,0.2-3.1,0.6s-1.7,1-2.3,1.7c-0.6,0.7-1.1,1.6-1.4,2.6
	s-0.5,2-0.5,3.2s0.2,2.2,0.5,3.2s0.8,1.9,1.4,2.6c0.6,0.8,1.4,1.4,2.3,1.8s2,0.7,3.1,0.7s2-0.2,2.7-0.6c0.7-0.4,1.3-0.9,1.8-1.6H95
	c0,0,0,0,0,0.1s0,0.2,0,0.3s0,0.3,0,0.4v1c0,0.7-0.1,1.3-0.4,1.9s-0.6,0.9-1,1.2s-0.9,0.5-1.5,0.7c-0.6,0.1-1.1,0.2-1.8,0.2
	c-0.6,0-1.2-0.1-1.7-0.2c-0.5-0.1-1-0.2-1.4-0.4c-0.4-0.1-0.7-0.3-1-0.4C85.9,37.4,85.8,37.3,85.8,37.3L85.8,37.3z M91.2,31.3
	c-0.9,0-1.6-0.2-2.2-0.7c-0.6-0.4-1.1-1-1.4-1.8c-0.3-0.7-0.5-1.6-0.5-2.6c0-0.9,0.1-1.7,0.4-2.4c0.3-0.7,0.7-1.2,1.3-1.6
	c0.6-0.4,1.3-0.6,2.1-0.6c0.6,0,1.1,0.1,1.6,0.2s0.9,0.4,1.3,0.7c0.4,0.4,0.7,0.8,0.9,1.4c0.2,0.6,0.3,1.4,0.3,2.3s-0.1,1.7-0.3,2.3
	c-0.2,0.6-0.5,1.1-0.8,1.5c-0.4,0.4-0.8,0.6-1.2,0.8C92.2,31.3,91.7,31.3,91.2,31.3L91.2,31.3z M102.3,26.9c0,1.2,0.2,2.3,0.6,3.3
	s1,1.9,1.8,2.7s1.7,1.4,2.8,1.9c1.1,0.5,2.3,0.7,3.7,0.7c0.8,0,1.6-0.1,2.3-0.2c0.7-0.2,1.3-0.3,1.8-0.6c0.5-0.2,1-0.5,1.4-0.7
	s0.7-0.4,0.8-0.6c0.2-0.2,0.3-0.2,0.3-0.2l-1.6-2.9c0,0-0.1,0.1-0.2,0.2c-0.2,0.1-0.4,0.3-0.7,0.4c-0.3,0.2-0.6,0.4-1,0.5
	c-0.4,0.2-0.8,0.3-1.3,0.4s-1,0.2-1.5,0.2c-0.6,0-1.2-0.1-1.8-0.3c-0.6-0.2-1.1-0.5-1.5-0.8c-0.4-0.4-0.8-0.8-1.1-1.4
	c-0.3-0.5-0.5-1.2-0.5-1.9h11.3c0,0,0-0.1,0-0.2s0-0.3,0-0.4c0-0.2,0-0.3,0-0.5s0-0.3,0-0.4c0-1.1-0.2-2.1-0.5-3s-0.8-1.8-1.4-2.5
	s-1.4-1.3-2.3-1.7c-0.9-0.4-1.9-0.6-3.1-0.6s-2.3,0.2-3.4,0.6c-1,0.4-1.9,1-2.6,1.8s-1.3,1.7-1.7,2.7
	C102.5,24.5,102.3,25.6,102.3,26.9L102.3,26.9z M106.6,24.9c0.1-0.7,0.4-1.3,0.7-1.8c0.4-0.5,0.8-0.9,1.3-1.2
	c0.5-0.3,1.2-0.4,1.9-0.4c0.6,0,1.1,0.1,1.6,0.4s0.9,0.6,1.1,1.1c0.3,0.5,0.4,1.1,0.5,1.9H106.6L106.6,24.9z M122.1,35.1h13.7v-2.8
	h-10.5V25h8.1v-2.8h-8.1v-7.1h10v-2.8h-13.2L122.1,35.1L122.1,35.1z M139.8,35.1h3.1v-7.6c0-0.4,0-0.8,0.1-1.1c0-0.4,0.1-0.7,0.2-1
	c0.2-0.8,0.6-1.5,1.1-2.1s1.1-1.1,1.8-1.4s1.4-0.5,2.3-0.5c0.6,0,1.2,0.1,1.6,0.3c0.4,0.2,0.7,0.5,0.9,0.9s0.4,0.8,0.4,1.3
	c0.1,0.5,0.1,1,0.1,1.6v9.7h3.1V24.7c0-2.1-0.4-3.6-1.4-4.7c-0.9-1-2.3-1.6-4.2-1.6c-0.9,0-1.7,0.1-2.4,0.4
	c-0.7,0.2-1.3,0.6-1.8,0.9c-0.5,0.4-0.9,0.8-1.2,1.2c-0.3,0.4-0.6,0.8-0.7,1.2h-0.1c0,0,0-0.1,0-0.2s0-0.3,0-0.4c0-0.2,0-0.4,0-0.6
	v-2.1h-3L139.8,35.1L139.8,35.1z M160.6,38l-1,2.4c0.5,0.3,1.1,0.5,1.7,0.7c0.6,0.2,1.2,0.4,1.9,0.5c0.6,0.1,1.3,0.2,2,0.2
	c0.8,0,1.6-0.1,2.4-0.3c0.8-0.2,1.5-0.4,2.2-0.8c0.7-0.4,1.3-0.8,1.8-1.4c0.5-0.6,0.9-1.3,1.2-2.1s0.4-1.8,0.5-2.8V18.9h-3v1.5
	c0,0.1,0,0.3,0,0.4s0,0.1,0,0.1h-0.1c0,0,0-0.1-0.2-0.3c-0.1-0.2-0.3-0.4-0.5-0.6s-0.6-0.5-0.9-0.7c-0.4-0.2-0.9-0.4-1.5-0.6
	s-1.3-0.2-2-0.3c-1.1,0-2.1,0.2-3,0.6s-1.6,1-2.2,1.7c-0.6,0.7-1.1,1.6-1.4,2.6c-0.3,1-0.5,2.1-0.5,3.2c0,1.2,0.2,2.3,0.5,3.3
	s0.8,1.9,1.4,2.6c0.6,0.8,1.4,1.3,2.3,1.8c0.9,0.4,1.9,0.6,3,0.6c1.2,0,2.1-0.2,2.9-0.7c0.8-0.4,1.4-1.1,1.9-1.9h0.1v0.1
	c0,0.1,0,0.2,0,0.4s0,0.3,0,0.5v1.2c0,0.8-0.1,1.5-0.4,2.1c-0.3,0.6-0.6,1-1.1,1.4s-1,0.6-1.6,0.8s-1.3,0.2-2,0.2
	c-0.6,0-1.2-0.1-1.7-0.2c-0.5-0.1-1-0.2-1.4-0.4c-0.4-0.1-0.7-0.3-1-0.4C160.7,38.1,160.6,38,160.6,38L160.6,38z M165.9,32.2
	c-1,0-1.8-0.3-2.5-0.7c-0.7-0.5-1.2-1.1-1.6-2c-0.4-0.8-0.6-1.8-0.6-3c0-1.1,0.2-2.1,0.5-2.9s0.9-1.4,1.5-1.8
	c0.7-0.4,1.5-0.6,2.4-0.7c0.6,0,1.2,0.1,1.8,0.3c0.6,0.2,1,0.5,1.5,0.9c0.4,0.4,0.7,1,1,1.7c0.2,0.7,0.4,1.6,0.4,2.6
	c0,1.1-0.1,1.9-0.4,2.7c-0.2,0.7-0.6,1.3-1,1.7c-0.4,0.4-0.9,0.7-1.4,0.9C167.1,32.1,166.5,32.2,165.9,32.2L165.9,32.2z M178.1,15.6
	h3.1v-3.2h-3.1V15.6L178.1,15.6z M178.2,35.1h3.1V18.9h-3.1V35.1L178.2,35.1z M186.2,35.1h3.1v-7.6c0-0.4,0-0.8,0.1-1.1
	c0-0.4,0.1-0.7,0.2-1c0.2-0.8,0.6-1.5,1.1-2.1s1.1-1.1,1.8-1.4s1.4-0.5,2.3-0.5c0.6,0,1.2,0.1,1.6,0.3c0.4,0.2,0.7,0.5,0.9,0.9
	s0.4,0.8,0.4,1.3c0.1,0.5,0.1,1,0.1,1.6v9.7h3.1V24.7c0-2.1-0.4-3.6-1.4-4.7c-0.9-1-2.3-1.6-4.2-1.6c-0.9,0-1.7,0.1-2.4,0.4
	c-0.7,0.2-1.3,0.6-1.8,0.9c-0.5,0.4-0.9,0.8-1.2,1.2c-0.3,0.4-0.6,0.8-0.7,1.2h-0.1c0,0,0-0.1,0-0.2s0-0.3,0-0.4c0-0.2,0-0.4,0-0.6
	v-2.1h-3L186.2,35.1L186.2,35.1z M204.4,27c0,1.2,0.2,2.3,0.6,3.4c0.4,1,1,1.9,1.8,2.7s1.7,1.4,2.7,1.8c1.1,0.4,2.2,0.6,3.5,0.7
	c0.8,0,1.5-0.1,2.1-0.2c0.7-0.2,1.2-0.3,1.7-0.6c0.5-0.2,0.9-0.5,1.3-0.7c0.4-0.2,0.6-0.4,0.8-0.6c0.2-0.2,0.3-0.2,0.3-0.2l-1.3-2.3
	c0,0-0.1,0.1-0.2,0.2c-0.2,0.1-0.4,0.3-0.7,0.5s-0.6,0.4-1,0.6c-0.4,0.2-0.8,0.3-1.3,0.5c-0.5,0.1-1,0.2-1.6,0.2
	c-0.7,0-1.4-0.1-2.1-0.3c-0.7-0.2-1.2-0.6-1.7-1c-0.5-0.4-0.9-1-1.2-1.7s-0.5-1.4-0.5-2.3h11.8c0,0,0-0.1,0-0.3c0-0.2,0-0.3,0-0.6
	c0-0.2,0-0.4,0-0.5c0-1.1-0.1-2-0.5-3c-0.3-0.9-0.7-1.7-1.3-2.4c-0.6-0.7-1.3-1.2-2.2-1.6s-1.9-0.6-3-0.6c-1.2,0-2.2,0.2-3.2,0.6
	s-1.8,1-2.6,1.7c-0.7,0.7-1.3,1.6-1.7,2.7C204.6,24.5,204.4,25.7,204.4,27L204.4,27z M207.7,25.1c0.2-0.9,0.5-1.6,0.9-2.3
	c0.4-0.6,1-1.1,1.7-1.4s1.4-0.5,2.2-0.5c0.7,0,1.3,0.1,1.9,0.5c0.6,0.3,1,0.8,1.4,1.4s0.6,1.4,0.6,2.3H207.7L207.7,25.1z"/>
</svg>
