<?xml version="1.0" encoding="utf-8"?>
<!-- Generator: Adobe Illustrator 24.2.1, SVG Export Plug-In . SVG Version: 6.00 Build 0)  -->
<svg version="1.1" id="Layer_1" xmlns="http://www.w3.org/2000/svg" xmlns:xlink="http://www.w3.org/1999/xlink" x="0px" y="0px"
	 viewBox="0 0 42 32" style="enable-background:new 0 0 42 32;" xml:space="preserve">
<style type="text/css">
	.st0{fill:#F6AE39;}
</style>
<g>
	<g>
		<path class="st0" d="M18.64,31.95H0.36v-9.89c0-4.79,1.05-9.16,3.15-13.11c2.1-3.94,5.19-6.91,9.29-8.91l5.09,3.74
			c-1.2,0.8-2.3,1.67-3.29,2.62c-1,0.95-1.9,1.92-2.7,2.92c-2,2.6-3,5.15-3,7.64h9.74V31.95z"/>
	</g>
	<g>
		<path class="st0" d="M41.64,31.95H23.36v-9.89c0-4.79,1.05-9.16,3.15-13.11c2.1-3.94,5.19-6.91,9.29-8.91l5.09,3.74
			c-1.2,0.8-2.3,1.67-3.29,2.62c-1,0.95-1.9,1.92-2.7,2.92c-2,2.6-3,5.15-3,7.64h9.74V31.95z"/>
	</g>
</g>
</svg>
